<mxfile host="app.diagrams.net" agent="Mozilla/5.0 (Windows NT 10.0; Win64; x64) AppleWebKit/537.36 (KHTML, like Gecko) Chrome/141.0.0.0 Safari/537.36" version="28.2.5">
  <diagram id="R2lEEEUBdFMjLlhIrx00" name="Page-1">
    <mxGraphModel dx="1892" dy="622" grid="1" gridSize="10" guides="1" tooltips="1" connect="1" arrows="1" fold="1" page="1" pageScale="1" pageWidth="850" pageHeight="1100" math="0" shadow="0" extFonts="Permanent Marker^https://fonts.googleapis.com/css?family=Permanent+Marker">
      <root>
        <mxCell id="0" />
        <mxCell id="1" parent="0" />
        <mxCell id="eODNS1rkglVLY219tLkL-1" value="Passeggero" style="rounded=0;whiteSpace=wrap;html=1;" parent="1" vertex="1">
          <mxGeometry x="-160" y="230" width="100" height="40" as="geometry" />
        </mxCell>
        <mxCell id="eODNS1rkglVLY219tLkL-3" value="Acquista" style="shape=rhombus;perimeter=rhombusPerimeter;whiteSpace=wrap;html=1;align=center;" parent="1" vertex="1">
          <mxGeometry x="-30" y="220" width="120" height="60" as="geometry" />
        </mxCell>
        <mxCell id="eODNS1rkglVLY219tLkL-5" value="Treno" style="whiteSpace=wrap;html=1;align=center;" parent="1" vertex="1">
          <mxGeometry x="710.4200000000001" y="330" width="100" height="40" as="geometry" />
        </mxCell>
        <mxCell id="eODNS1rkglVLY219tLkL-7" value="Viaggia" style="shape=rhombus;perimeter=rhombusPerimeter;whiteSpace=wrap;html=1;align=center;" parent="1" vertex="1">
          <mxGeometry x="530" y="320" width="120" height="60" as="geometry" />
        </mxCell>
        <mxCell id="eODNS1rkglVLY219tLkL-8" value="Tratta" style="whiteSpace=wrap;html=1;align=center;" parent="1" vertex="1">
          <mxGeometry x="360" y="490" width="100" height="40" as="geometry" />
        </mxCell>
        <mxCell id="eODNS1rkglVLY219tLkL-9" value="Indirizzo_Passeggero" style="ellipse;whiteSpace=wrap;html=1;align=center;" parent="1" vertex="1">
          <mxGeometry x="-270" y="150" width="130" height="50" as="geometry" />
        </mxCell>
        <mxCell id="eODNS1rkglVLY219tLkL-12" value="Dipendente" style="whiteSpace=wrap;html=1;align=center;" parent="1" vertex="1">
          <mxGeometry x="119.58000000000001" y="612" width="100" height="40" as="geometry" />
        </mxCell>
        <mxCell id="eODNS1rkglVLY219tLkL-19" value="" style="endArrow=none;html=1;rounded=0;exitX=0;exitY=0.5;exitDx=0;exitDy=0;entryX=1;entryY=0.5;entryDx=0;entryDy=0;" parent="1" source="eODNS1rkglVLY219tLkL-3" target="eODNS1rkglVLY219tLkL-1" edge="1">
          <mxGeometry width="50" height="50" relative="1" as="geometry">
            <mxPoint x="260" y="249.58" as="sourcePoint" />
            <mxPoint x="220" y="250" as="targetPoint" />
          </mxGeometry>
        </mxCell>
        <mxCell id="eODNS1rkglVLY219tLkL-22" value="" style="endArrow=none;html=1;rounded=0;exitX=0;exitY=0.5;exitDx=0;exitDy=0;entryX=1;entryY=0.5;entryDx=0;entryDy=0;" parent="1" source="eODNS1rkglVLY219tLkL-5" target="eODNS1rkglVLY219tLkL-7" edge="1">
          <mxGeometry width="50" height="50" relative="1" as="geometry">
            <mxPoint x="190" y="340" as="sourcePoint" />
            <mxPoint x="140" y="340" as="targetPoint" />
          </mxGeometry>
        </mxCell>
        <mxCell id="eODNS1rkglVLY219tLkL-25" value="" style="endArrow=none;html=1;rounded=0;exitX=0;exitY=0;exitDx=0;exitDy=0;entryX=0.5;entryY=1;entryDx=0;entryDy=0;" parent="1" source="eODNS1rkglVLY219tLkL-1" target="eODNS1rkglVLY219tLkL-9" edge="1">
          <mxGeometry width="50" height="50" relative="1" as="geometry">
            <mxPoint x="220" y="320" as="sourcePoint" />
            <mxPoint x="220" y="280" as="targetPoint" />
          </mxGeometry>
        </mxCell>
        <mxCell id="eODNS1rkglVLY219tLkL-33" value="" style="endArrow=none;html=1;rounded=0;exitX=0.5;exitY=0;exitDx=0;exitDy=0;entryX=0.503;entryY=1.031;entryDx=0;entryDy=0;entryPerimeter=0;" parent="1" source="eODNS1rkglVLY219tLkL-12" target="SnCLscJBYoTOpv-g1eGh-6" edge="1">
          <mxGeometry width="50" height="50" relative="1" as="geometry">
            <mxPoint x="180.00000000000003" y="410" as="sourcePoint" />
            <mxPoint x="169.99999999999977" y="550" as="targetPoint" />
          </mxGeometry>
        </mxCell>
        <mxCell id="eODNS1rkglVLY219tLkL-35" value="Stazione" style="whiteSpace=wrap;html=1;align=center;" parent="1" vertex="1">
          <mxGeometry x="360" y="720" width="100" height="40" as="geometry" />
        </mxCell>
        <mxCell id="eODNS1rkglVLY219tLkL-36" value="Fermata" style="shape=rhombus;perimeter=rhombusPerimeter;whiteSpace=wrap;html=1;align=center;" parent="1" vertex="1">
          <mxGeometry x="350" y="600" width="120" height="60" as="geometry" />
        </mxCell>
        <mxCell id="eODNS1rkglVLY219tLkL-37" value="" style="endArrow=none;html=1;rounded=0;exitX=0.5;exitY=0;exitDx=0;exitDy=0;entryX=0.5;entryY=1;entryDx=0;entryDy=0;" parent="1" source="eODNS1rkglVLY219tLkL-36" target="eODNS1rkglVLY219tLkL-8" edge="1">
          <mxGeometry width="50" height="50" relative="1" as="geometry">
            <mxPoint x="740" y="580" as="sourcePoint" />
            <mxPoint x="740" y="540" as="targetPoint" />
          </mxGeometry>
        </mxCell>
        <mxCell id="eODNS1rkglVLY219tLkL-38" value="" style="endArrow=none;html=1;rounded=0;exitX=0.5;exitY=0;exitDx=0;exitDy=0;entryX=0.5;entryY=1;entryDx=0;entryDy=0;" parent="1" source="eODNS1rkglVLY219tLkL-35" target="eODNS1rkglVLY219tLkL-36" edge="1">
          <mxGeometry width="50" height="50" relative="1" as="geometry">
            <mxPoint x="420" y="630" as="sourcePoint" />
            <mxPoint x="420" y="590" as="targetPoint" />
          </mxGeometry>
        </mxCell>
        <mxCell id="eODNS1rkglVLY219tLkL-45" value="Persona Fisica" style="whiteSpace=wrap;html=1;align=center;" parent="1" vertex="1">
          <mxGeometry x="-240" y="360" width="100" height="40" as="geometry" />
        </mxCell>
        <mxCell id="eODNS1rkglVLY219tLkL-46" value="Soggetto Giuridico" style="whiteSpace=wrap;html=1;align=center;" parent="1" vertex="1">
          <mxGeometry x="-80" y="360" width="100" height="40" as="geometry" />
        </mxCell>
        <mxCell id="eODNS1rkglVLY219tLkL-47" value="" style="shape=flexArrow;endArrow=classic;html=1;rounded=0;entryX=0.5;entryY=1;entryDx=0;entryDy=0;fillColor=#000000;fillStyle=solid;gradientColor=none;strokeColor=default;" parent="1" edge="1">
          <mxGeometry width="50" height="50" relative="1" as="geometry">
            <mxPoint x="-110.42000000000002" y="320" as="sourcePoint" />
            <mxPoint x="-110" y="270" as="targetPoint" />
            <Array as="points">
              <mxPoint x="-110.42000000000002" y="310" />
            </Array>
          </mxGeometry>
        </mxCell>
        <mxCell id="eODNS1rkglVLY219tLkL-48" value="" style="endArrow=none;html=1;rounded=0;" parent="1" edge="1">
          <mxGeometry width="50" height="50" relative="1" as="geometry">
            <mxPoint x="-190.42000000000002" y="320" as="sourcePoint" />
            <mxPoint x="-30.41999999999996" y="320" as="targetPoint" />
          </mxGeometry>
        </mxCell>
        <mxCell id="eODNS1rkglVLY219tLkL-49" value="" style="endArrow=none;html=1;rounded=0;entryX=0.5;entryY=0;entryDx=0;entryDy=0;" parent="1" edge="1">
          <mxGeometry width="50" height="50" relative="1" as="geometry">
            <mxPoint x="-190.42000000000002" y="320" as="sourcePoint" />
            <mxPoint x="-190.42000000000002" y="360" as="targetPoint" />
          </mxGeometry>
        </mxCell>
        <mxCell id="eODNS1rkglVLY219tLkL-50" value="" style="endArrow=none;html=1;rounded=0;entryX=0.5;entryY=0;entryDx=0;entryDy=0;" parent="1" edge="1">
          <mxGeometry width="50" height="50" relative="1" as="geometry">
            <mxPoint x="-30.41999999999996" y="320" as="sourcePoint" />
            <mxPoint x="-30.41999999999996" y="360" as="targetPoint" />
          </mxGeometry>
        </mxCell>
        <mxCell id="eODNS1rkglVLY219tLkL-53" value="Biglietto" style="rounded=0;whiteSpace=wrap;html=1;" parent="1" vertex="1">
          <mxGeometry x="490" y="130" width="100" height="40" as="geometry" />
        </mxCell>
        <mxCell id="eODNS1rkglVLY219tLkL-56" value="" style="endArrow=none;html=1;rounded=0;exitX=0;exitY=0.5;exitDx=0;exitDy=0;entryX=0;entryY=1;entryDx=0;entryDy=0;" parent="1" source="eODNS1rkglVLY219tLkL-8" target="GVSm5cRxoAovmWzhfuRe-69" edge="1">
          <mxGeometry width="50" height="50" relative="1" as="geometry">
            <mxPoint x="540" y="410" as="sourcePoint" />
            <mxPoint x="229.99999999999977" y="510" as="targetPoint" />
          </mxGeometry>
        </mxCell>
        <mxCell id="eODNS1rkglVLY219tLkL-57" value="" style="html=1;verticalAlign=bottom;labelBackgroundColor=none;startArrow=oval;startFill=0;startSize=8;endArrow=none;rounded=0;entryX=0;entryY=0.75;entryDx=0;entryDy=0;" parent="1" edge="1">
          <mxGeometry x="-1" y="3" relative="1" as="geometry">
            <mxPoint x="-220" y="252" as="sourcePoint" />
            <mxPoint x="-160" y="252" as="targetPoint" />
            <Array as="points" />
          </mxGeometry>
        </mxCell>
        <mxCell id="eODNS1rkglVLY219tLkL-58" value="Nome" style="edgeLabel;html=1;align=center;verticalAlign=middle;resizable=0;points=[];" parent="eODNS1rkglVLY219tLkL-57" vertex="1" connectable="0">
          <mxGeometry x="-0.25" y="-2" relative="1" as="geometry">
            <mxPoint x="-50" y="-2" as="offset" />
          </mxGeometry>
        </mxCell>
        <mxCell id="eODNS1rkglVLY219tLkL-59" value="" style="html=1;verticalAlign=bottom;labelBackgroundColor=none;startArrow=oval;startFill=0;startSize=8;endArrow=none;rounded=0;entryX=0;entryY=0.25;entryDx=0;entryDy=0;" parent="1" edge="1">
          <mxGeometry x="-1" y="3" relative="1" as="geometry">
            <mxPoint x="-220" y="238" as="sourcePoint" />
            <mxPoint x="-160" y="238" as="targetPoint" />
            <Array as="points" />
          </mxGeometry>
        </mxCell>
        <mxCell id="eODNS1rkglVLY219tLkL-60" value="Cognome" style="edgeLabel;html=1;align=center;verticalAlign=middle;resizable=0;points=[];" parent="eODNS1rkglVLY219tLkL-59" vertex="1" connectable="0">
          <mxGeometry x="-0.25" y="-2" relative="1" as="geometry">
            <mxPoint x="-55" y="-2" as="offset" />
          </mxGeometry>
        </mxCell>
        <mxCell id="eODNS1rkglVLY219tLkL-61" value="" style="html=1;verticalAlign=bottom;labelBackgroundColor=none;startArrow=oval;startFill=1;startSize=8;endArrow=none;rounded=0;entryX=0.25;entryY=0;entryDx=0;entryDy=0;" parent="1" target="eODNS1rkglVLY219tLkL-1" edge="1">
          <mxGeometry x="-1" y="3" relative="1" as="geometry">
            <mxPoint x="-135" y="210" as="sourcePoint" />
            <mxPoint x="-150" y="250" as="targetPoint" />
            <Array as="points" />
          </mxGeometry>
        </mxCell>
        <mxCell id="eODNS1rkglVLY219tLkL-62" value="ID" style="edgeLabel;html=1;align=center;verticalAlign=middle;resizable=0;points=[];" parent="eODNS1rkglVLY219tLkL-61" vertex="1" connectable="0">
          <mxGeometry x="-0.25" y="-2" relative="1" as="geometry">
            <mxPoint x="3" y="-20" as="offset" />
          </mxGeometry>
        </mxCell>
        <mxCell id="eODNS1rkglVLY219tLkL-63" value="" style="html=1;verticalAlign=bottom;labelBackgroundColor=none;startArrow=oval;startFill=0;startSize=8;endArrow=none;rounded=0;entryX=0.5;entryY=0;entryDx=0;entryDy=0;" parent="1" target="eODNS1rkglVLY219tLkL-1" edge="1">
          <mxGeometry x="-1" y="3" relative="1" as="geometry">
            <mxPoint x="-110" y="170" as="sourcePoint" />
            <mxPoint x="-150" y="250" as="targetPoint" />
            <Array as="points" />
          </mxGeometry>
        </mxCell>
        <mxCell id="eODNS1rkglVLY219tLkL-64" value="Data Nascita" style="edgeLabel;html=1;align=center;verticalAlign=middle;resizable=0;points=[];" parent="eODNS1rkglVLY219tLkL-63" vertex="1" connectable="0">
          <mxGeometry x="-0.25" y="-2" relative="1" as="geometry">
            <mxPoint x="18" y="-36" as="offset" />
          </mxGeometry>
        </mxCell>
        <mxCell id="eODNS1rkglVLY219tLkL-65" value="" style="html=1;verticalAlign=bottom;labelBackgroundColor=none;startArrow=oval;startFill=0;startSize=8;endArrow=none;rounded=0;entryX=0;entryY=1;entryDx=0;entryDy=0;" parent="1" target="eODNS1rkglVLY219tLkL-9" edge="1">
          <mxGeometry x="-1" y="3" relative="1" as="geometry">
            <mxPoint x="-290" y="193" as="sourcePoint" />
            <mxPoint x="-150" y="250" as="targetPoint" />
            <Array as="points" />
          </mxGeometry>
        </mxCell>
        <mxCell id="eODNS1rkglVLY219tLkL-66" value="Via" style="edgeLabel;html=1;align=center;verticalAlign=middle;resizable=0;points=[];" parent="eODNS1rkglVLY219tLkL-65" vertex="1" connectable="0">
          <mxGeometry x="-0.25" y="-2" relative="1" as="geometry">
            <mxPoint x="-47" y="-1" as="offset" />
          </mxGeometry>
        </mxCell>
        <mxCell id="eODNS1rkglVLY219tLkL-67" value="" style="html=1;verticalAlign=bottom;labelBackgroundColor=none;startArrow=oval;startFill=0;startSize=8;endArrow=none;rounded=0;entryX=0;entryY=0.5;entryDx=0;entryDy=0;" parent="1" target="eODNS1rkglVLY219tLkL-9" edge="1">
          <mxGeometry x="-1" y="3" relative="1" as="geometry">
            <mxPoint x="-290" y="175" as="sourcePoint" />
            <mxPoint x="-230.42000000000002" y="170" as="targetPoint" />
            <Array as="points" />
          </mxGeometry>
        </mxCell>
        <mxCell id="eODNS1rkglVLY219tLkL-68" value="Civico" style="edgeLabel;html=1;align=center;verticalAlign=middle;resizable=0;points=[];" parent="eODNS1rkglVLY219tLkL-67" vertex="1" connectable="0">
          <mxGeometry x="-0.25" y="-2" relative="1" as="geometry">
            <mxPoint x="-49" y="-2" as="offset" />
          </mxGeometry>
        </mxCell>
        <mxCell id="eODNS1rkglVLY219tLkL-71" value="" style="html=1;verticalAlign=bottom;labelBackgroundColor=none;startArrow=oval;startFill=0;startSize=8;endArrow=none;rounded=0;entryX=0;entryY=0;entryDx=0;entryDy=0;" parent="1" target="eODNS1rkglVLY219tLkL-9" edge="1">
          <mxGeometry x="-1" y="3" relative="1" as="geometry">
            <mxPoint x="-290" y="157" as="sourcePoint" />
            <mxPoint x="-230" y="190" as="targetPoint" />
            <Array as="points" />
          </mxGeometry>
        </mxCell>
        <mxCell id="eODNS1rkglVLY219tLkL-72" value="Cap" style="edgeLabel;html=1;align=center;verticalAlign=middle;resizable=0;points=[];" parent="eODNS1rkglVLY219tLkL-71" vertex="1" connectable="0">
          <mxGeometry x="-0.25" y="-2" relative="1" as="geometry">
            <mxPoint x="-49" y="-2" as="offset" />
          </mxGeometry>
        </mxCell>
        <mxCell id="eODNS1rkglVLY219tLkL-73" value="" style="html=1;verticalAlign=bottom;labelBackgroundColor=none;startArrow=oval;startFill=1;startSize=8;endArrow=none;rounded=0;entryX=0;entryY=0.5;entryDx=0;entryDy=0;" parent="1" target="eODNS1rkglVLY219tLkL-45" edge="1">
          <mxGeometry x="-1" y="3" relative="1" as="geometry">
            <mxPoint x="-260" y="380" as="sourcePoint" />
            <mxPoint x="-150" y="270" as="targetPoint" />
            <Array as="points" />
          </mxGeometry>
        </mxCell>
        <mxCell id="eODNS1rkglVLY219tLkL-74" value="Codice&lt;div&gt;Fiscale&lt;/div&gt;" style="edgeLabel;html=1;align=center;verticalAlign=middle;resizable=0;points=[];" parent="eODNS1rkglVLY219tLkL-73" vertex="1" connectable="0">
          <mxGeometry x="-0.25" y="-2" relative="1" as="geometry">
            <mxPoint x="-33" y="-3" as="offset" />
          </mxGeometry>
        </mxCell>
        <mxCell id="eODNS1rkglVLY219tLkL-75" value="" style="html=1;verticalAlign=bottom;labelBackgroundColor=none;startArrow=oval;startFill=0;startSize=8;endArrow=none;rounded=0;entryX=0.75;entryY=0;entryDx=0;entryDy=0;" parent="1" edge="1">
          <mxGeometry x="-1" y="3" relative="1" as="geometry">
            <mxPoint x="-89" y="200" as="sourcePoint" />
            <mxPoint x="-89" y="230" as="targetPoint" />
            <Array as="points" />
          </mxGeometry>
        </mxCell>
        <mxCell id="eODNS1rkglVLY219tLkL-76" value="Email" style="edgeLabel;html=1;align=center;verticalAlign=middle;resizable=0;points=[];" parent="eODNS1rkglVLY219tLkL-75" vertex="1" connectable="0">
          <mxGeometry x="-0.25" y="-2" relative="1" as="geometry">
            <mxPoint x="5" y="-28" as="offset" />
          </mxGeometry>
        </mxCell>
        <mxCell id="eODNS1rkglVLY219tLkL-77" value="" style="html=1;verticalAlign=bottom;labelBackgroundColor=none;startArrow=oval;startFill=0;startSize=8;endArrow=none;rounded=0;entryX=1;entryY=0;entryDx=0;entryDy=0;" parent="1" edge="1">
          <mxGeometry x="-1" y="3" relative="1" as="geometry">
            <mxPoint x="-67" y="210" as="sourcePoint" />
            <mxPoint x="-67" y="230" as="targetPoint" />
            <Array as="points" />
          </mxGeometry>
        </mxCell>
        <mxCell id="eODNS1rkglVLY219tLkL-78" value="Telefono" style="edgeLabel;html=1;align=center;verticalAlign=middle;resizable=0;points=[];" parent="eODNS1rkglVLY219tLkL-77" vertex="1" connectable="0">
          <mxGeometry x="-0.25" y="-2" relative="1" as="geometry">
            <mxPoint x="25" y="-19" as="offset" />
          </mxGeometry>
        </mxCell>
        <mxCell id="eODNS1rkglVLY219tLkL-79" value="" style="html=1;verticalAlign=bottom;labelBackgroundColor=none;startArrow=oval;startFill=1;startSize=8;endArrow=none;rounded=0;entryX=0.25;entryY=0;entryDx=0;entryDy=0;" parent="1" edge="1">
          <mxGeometry x="-1" y="3" relative="1" as="geometry">
            <mxPoint x="503" y="90" as="sourcePoint" />
            <mxPoint x="503" y="130" as="targetPoint" />
            <Array as="points" />
          </mxGeometry>
        </mxCell>
        <mxCell id="eODNS1rkglVLY219tLkL-80" value="Codice" style="edgeLabel;html=1;align=center;verticalAlign=middle;resizable=0;points=[];" parent="eODNS1rkglVLY219tLkL-79" vertex="1" connectable="0">
          <mxGeometry x="-0.25" y="-2" relative="1" as="geometry">
            <mxPoint x="-4" y="-31" as="offset" />
          </mxGeometry>
        </mxCell>
        <mxCell id="eODNS1rkglVLY219tLkL-81" value="" style="html=1;verticalAlign=bottom;labelBackgroundColor=none;startArrow=oval;startFill=0;startSize=8;endArrow=none;rounded=0;entryX=1;entryY=0.5;entryDx=0;entryDy=0;" parent="1" edge="1">
          <mxGeometry x="-1" y="3" relative="1" as="geometry">
            <mxPoint x="166" y="184" as="sourcePoint" />
            <mxPoint x="122.18" y="159.58" as="targetPoint" />
            <Array as="points">
              <mxPoint x="122" y="184" />
            </Array>
          </mxGeometry>
        </mxCell>
        <mxCell id="eODNS1rkglVLY219tLkL-82" value="Data&amp;nbsp;&lt;span style=&quot;background-color: light-dark(#ffffff, var(--ge-dark-color, #121212)); color: light-dark(rgb(0, 0, 0), rgb(255, 255, 255));&quot;&gt;Prenotazione&lt;/span&gt;" style="edgeLabel;html=1;align=center;verticalAlign=middle;resizable=0;points=[];" parent="eODNS1rkglVLY219tLkL-81" vertex="1" connectable="0">
          <mxGeometry x="-0.25" y="-2" relative="1" as="geometry">
            <mxPoint x="76" y="2" as="offset" />
          </mxGeometry>
        </mxCell>
        <mxCell id="eODNS1rkglVLY219tLkL-85" value="" style="html=1;verticalAlign=bottom;labelBackgroundColor=none;startArrow=oval;startFill=0;startSize=8;endArrow=none;rounded=0;entryX=0.75;entryY=0;entryDx=0;entryDy=0;" parent="1" edge="1">
          <mxGeometry x="-1" y="3" relative="1" as="geometry">
            <mxPoint x="524" y="70" as="sourcePoint" />
            <mxPoint x="524" y="130" as="targetPoint" />
            <Array as="points" />
          </mxGeometry>
        </mxCell>
        <mxCell id="eODNS1rkglVLY219tLkL-86" value="Validato" style="edgeLabel;html=1;align=center;verticalAlign=middle;resizable=0;points=[];" parent="eODNS1rkglVLY219tLkL-85" vertex="1" connectable="0">
          <mxGeometry x="-0.25" y="-2" relative="1" as="geometry">
            <mxPoint x="5" y="-36" as="offset" />
          </mxGeometry>
        </mxCell>
        <mxCell id="eODNS1rkglVLY219tLkL-87" value="" style="html=1;verticalAlign=bottom;labelBackgroundColor=none;startArrow=oval;startFill=0;startSize=8;endArrow=none;rounded=0;entryX=0.75;entryY=0;entryDx=0;entryDy=0;" parent="1" edge="1">
          <mxGeometry x="-1" y="3" relative="1" as="geometry">
            <mxPoint x="572" y="80" as="sourcePoint" />
            <mxPoint x="572" y="130" as="targetPoint" />
            <Array as="points" />
          </mxGeometry>
        </mxCell>
        <mxCell id="eODNS1rkglVLY219tLkL-88" value="Data&lt;div&gt;Validazione&lt;/div&gt;" style="edgeLabel;html=1;align=center;verticalAlign=middle;resizable=0;points=[];" parent="eODNS1rkglVLY219tLkL-87" vertex="1" connectable="0">
          <mxGeometry x="-0.25" y="-2" relative="1" as="geometry">
            <mxPoint x="10" y="-40" as="offset" />
          </mxGeometry>
        </mxCell>
        <mxCell id="eODNS1rkglVLY219tLkL-97" value="" style="html=1;verticalAlign=bottom;labelBackgroundColor=none;startArrow=oval;startFill=1;startSize=8;endArrow=none;rounded=0;entryX=0.75;entryY=0;entryDx=0;entryDy=0;" parent="1" edge="1">
          <mxGeometry x="-1" y="3" relative="1" as="geometry">
            <mxPoint x="779" y="280" as="sourcePoint" />
            <mxPoint x="779.42" y="330" as="targetPoint" />
            <Array as="points" />
          </mxGeometry>
        </mxCell>
        <mxCell id="eODNS1rkglVLY219tLkL-98" value="Matricola" style="edgeLabel;html=1;align=center;verticalAlign=middle;resizable=0;points=[];" parent="eODNS1rkglVLY219tLkL-97" vertex="1" connectable="0">
          <mxGeometry x="-0.25" y="-2" relative="1" as="geometry">
            <mxPoint x="1" y="-32" as="offset" />
          </mxGeometry>
        </mxCell>
        <mxCell id="eODNS1rkglVLY219tLkL-101" value="" style="html=1;verticalAlign=bottom;labelBackgroundColor=none;startArrow=oval;startFill=0;startSize=8;endArrow=none;rounded=0;entryX=1;entryY=0.5;entryDx=0;entryDy=0;" parent="1" edge="1">
          <mxGeometry x="-1" y="3" relative="1" as="geometry">
            <mxPoint x="860.42" y="362.58" as="sourcePoint" />
            <mxPoint x="810.42" y="362.58" as="targetPoint" />
            <Array as="points" />
          </mxGeometry>
        </mxCell>
        <mxCell id="eODNS1rkglVLY219tLkL-102" value="Numero Carrozze" style="edgeLabel;html=1;align=center;verticalAlign=middle;resizable=0;points=[];" parent="eODNS1rkglVLY219tLkL-101" vertex="1" connectable="0">
          <mxGeometry x="-0.25" y="-2" relative="1" as="geometry">
            <mxPoint x="68" y="2" as="offset" />
          </mxGeometry>
        </mxCell>
        <mxCell id="eODNS1rkglVLY219tLkL-103" value="" style="html=1;verticalAlign=bottom;labelBackgroundColor=none;startArrow=oval;startFill=0;startSize=8;endArrow=none;rounded=0;entryX=0.75;entryY=1;entryDx=0;entryDy=0;" parent="1" target="eODNS1rkglVLY219tLkL-5" edge="1">
          <mxGeometry x="-1" y="3" relative="1" as="geometry">
            <mxPoint x="785" y="400" as="sourcePoint" />
            <mxPoint x="780.0000000000001" y="380" as="targetPoint" />
            <Array as="points" />
          </mxGeometry>
        </mxCell>
        <mxCell id="eODNS1rkglVLY219tLkL-104" value="Anno Costruzione" style="edgeLabel;html=1;align=center;verticalAlign=middle;resizable=0;points=[];" parent="eODNS1rkglVLY219tLkL-103" vertex="1" connectable="0">
          <mxGeometry x="-0.25" y="-2" relative="1" as="geometry">
            <mxPoint x="36" y="24" as="offset" />
          </mxGeometry>
        </mxCell>
        <mxCell id="eODNS1rkglVLY219tLkL-105" value="" style="html=1;verticalAlign=bottom;labelBackgroundColor=none;startArrow=oval;startFill=0;startSize=8;endArrow=none;rounded=0;entryX=0;entryY=1;entryDx=0;entryDy=0;" parent="1" edge="1">
          <mxGeometry x="-1" y="3" relative="1" as="geometry">
            <mxPoint x="-220" y="265" as="sourcePoint" />
            <mxPoint x="-160" y="265" as="targetPoint" />
            <Array as="points" />
          </mxGeometry>
        </mxCell>
        <mxCell id="eODNS1rkglVLY219tLkL-106" value="Sesso" style="edgeLabel;html=1;align=center;verticalAlign=middle;resizable=0;points=[];" parent="eODNS1rkglVLY219tLkL-105" vertex="1" connectable="0">
          <mxGeometry x="-0.25" y="-2" relative="1" as="geometry">
            <mxPoint x="-50" y="-1" as="offset" />
          </mxGeometry>
        </mxCell>
        <mxCell id="eODNS1rkglVLY219tLkL-111" value="" style="html=1;verticalAlign=bottom;labelBackgroundColor=none;startArrow=oval;startFill=1;startSize=8;endArrow=none;rounded=0;entryX=1;entryY=0.5;entryDx=0;entryDy=0;" parent="1" target="eODNS1rkglVLY219tLkL-12" edge="1">
          <mxGeometry x="-1" y="3" relative="1" as="geometry">
            <mxPoint x="240" y="632" as="sourcePoint" />
            <mxPoint x="598" y="402" as="targetPoint" />
            <Array as="points" />
          </mxGeometry>
        </mxCell>
        <mxCell id="eODNS1rkglVLY219tLkL-112" value="Matricola" style="edgeLabel;html=1;align=center;verticalAlign=middle;resizable=0;points=[];" parent="eODNS1rkglVLY219tLkL-111" vertex="1" connectable="0">
          <mxGeometry x="-0.25" y="-2" relative="1" as="geometry">
            <mxPoint x="38" y="2" as="offset" />
          </mxGeometry>
        </mxCell>
        <mxCell id="eODNS1rkglVLY219tLkL-113" value="" style="html=1;verticalAlign=bottom;labelBackgroundColor=none;startArrow=oval;startFill=0;startSize=8;endArrow=none;rounded=0;entryX=0;entryY=0.75;entryDx=0;entryDy=0;" parent="1" edge="1">
          <mxGeometry x="-1" y="3" relative="1" as="geometry">
            <mxPoint x="60" y="637" as="sourcePoint" />
            <mxPoint x="120.00000000000003" y="637" as="targetPoint" />
            <Array as="points" />
          </mxGeometry>
        </mxCell>
        <mxCell id="eODNS1rkglVLY219tLkL-114" value="Nome" style="edgeLabel;html=1;align=center;verticalAlign=middle;resizable=0;points=[];" parent="eODNS1rkglVLY219tLkL-113" vertex="1" connectable="0">
          <mxGeometry x="-0.25" y="-2" relative="1" as="geometry">
            <mxPoint x="-52" y="-2" as="offset" />
          </mxGeometry>
        </mxCell>
        <mxCell id="eODNS1rkglVLY219tLkL-115" value="" style="html=1;verticalAlign=bottom;labelBackgroundColor=none;startArrow=oval;startFill=0;startSize=8;endArrow=none;rounded=0;entryX=0;entryY=0.25;entryDx=0;entryDy=0;" parent="1" edge="1">
          <mxGeometry x="-1" y="3" relative="1" as="geometry">
            <mxPoint x="60" y="622" as="sourcePoint" />
            <mxPoint x="120.00000000000003" y="622" as="targetPoint" />
            <Array as="points" />
          </mxGeometry>
        </mxCell>
        <mxCell id="eODNS1rkglVLY219tLkL-116" value="Cognome" style="edgeLabel;html=1;align=center;verticalAlign=middle;resizable=0;points=[];" parent="eODNS1rkglVLY219tLkL-115" vertex="1" connectable="0">
          <mxGeometry x="-0.25" y="-2" relative="1" as="geometry">
            <mxPoint x="-60" y="-2" as="offset" />
          </mxGeometry>
        </mxCell>
        <mxCell id="eODNS1rkglVLY219tLkL-117" value="" style="html=1;verticalAlign=bottom;labelBackgroundColor=none;startArrow=oval;startFill=0;startSize=8;endArrow=none;rounded=0;entryX=0;entryY=1;entryDx=0;entryDy=0;" parent="1" edge="1">
          <mxGeometry x="-1" y="3" relative="1" as="geometry">
            <mxPoint x="60" y="650" as="sourcePoint" />
            <mxPoint x="120.00000000000003" y="650" as="targetPoint" />
            <Array as="points" />
          </mxGeometry>
        </mxCell>
        <mxCell id="eODNS1rkglVLY219tLkL-118" value="Sesso" style="edgeLabel;html=1;align=center;verticalAlign=middle;resizable=0;points=[];" parent="eODNS1rkglVLY219tLkL-117" vertex="1" connectable="0">
          <mxGeometry x="-0.25" y="-2" relative="1" as="geometry">
            <mxPoint x="-52" y="-3" as="offset" />
          </mxGeometry>
        </mxCell>
        <mxCell id="eODNS1rkglVLY219tLkL-127" value="" style="html=1;verticalAlign=bottom;labelBackgroundColor=none;startArrow=oval;startFill=0;startSize=8;endArrow=none;rounded=0;entryX=0.5;entryY=1;entryDx=0;entryDy=0;" parent="1" edge="1">
          <mxGeometry x="-1" y="3" relative="1" as="geometry">
            <mxPoint x="367.08000000000004" y="780" as="sourcePoint" />
            <mxPoint x="367.08000000000004" y="760" as="targetPoint" />
            <Array as="points" />
          </mxGeometry>
        </mxCell>
        <mxCell id="eODNS1rkglVLY219tLkL-128" value="Denominazione" style="edgeLabel;html=1;align=center;verticalAlign=middle;resizable=0;points=[];" parent="eODNS1rkglVLY219tLkL-127" vertex="1" connectable="0">
          <mxGeometry x="-0.25" y="-2" relative="1" as="geometry">
            <mxPoint x="-10" y="18" as="offset" />
          </mxGeometry>
        </mxCell>
        <mxCell id="eODNS1rkglVLY219tLkL-129" value="" style="html=1;verticalAlign=bottom;labelBackgroundColor=none;startArrow=oval;startFill=1;startSize=8;endArrow=none;rounded=0;entryX=1;entryY=0.25;entryDx=0;entryDy=0;" parent="1" edge="1">
          <mxGeometry x="-1" y="3" relative="1" as="geometry">
            <mxPoint x="490" y="753" as="sourcePoint" />
            <mxPoint x="460" y="753" as="targetPoint" />
            <Array as="points" />
          </mxGeometry>
        </mxCell>
        <mxCell id="eODNS1rkglVLY219tLkL-130" value="Codice&amp;nbsp;&lt;div&gt;Stazione&lt;/div&gt;" style="edgeLabel;html=1;align=center;verticalAlign=middle;resizable=0;points=[];" parent="eODNS1rkglVLY219tLkL-129" vertex="1" connectable="0">
          <mxGeometry x="-0.25" y="-2" relative="1" as="geometry">
            <mxPoint x="38" y="12" as="offset" />
          </mxGeometry>
        </mxCell>
        <mxCell id="eODNS1rkglVLY219tLkL-131" value="" style="html=1;verticalAlign=bottom;labelBackgroundColor=none;startArrow=oval;startFill=0;startSize=8;endArrow=none;rounded=0;entryX=0.558;entryY=1.029;entryDx=0;entryDy=0;entryPerimeter=0;" parent="1" edge="1">
          <mxGeometry x="-1" y="3" relative="1" as="geometry">
            <mxPoint x="405" y="820" as="sourcePoint" />
            <mxPoint x="404.8000000000002" y="761.1600000000001" as="targetPoint" />
            <Array as="points" />
          </mxGeometry>
        </mxCell>
        <mxCell id="eODNS1rkglVLY219tLkL-132" value="Numero&lt;div&gt;Binari&lt;/div&gt;" style="edgeLabel;html=1;align=center;verticalAlign=middle;resizable=0;points=[];" parent="eODNS1rkglVLY219tLkL-131" vertex="1" connectable="0">
          <mxGeometry x="-0.25" y="-2" relative="1" as="geometry">
            <mxPoint x="-6" y="42" as="offset" />
          </mxGeometry>
        </mxCell>
        <mxCell id="eODNS1rkglVLY219tLkL-133" value="" style="html=1;verticalAlign=bottom;labelBackgroundColor=none;startArrow=oval;startFill=0;startSize=8;endArrow=none;rounded=0;entryX=0.825;entryY=1.008;entryDx=0;entryDy=0;entryPerimeter=0;" parent="1" edge="1">
          <mxGeometry x="-1" y="3" relative="1" as="geometry">
            <mxPoint x="441" y="800" as="sourcePoint" />
            <mxPoint x="440.5" y="760.3199999999999" as="targetPoint" />
            <Array as="points" />
          </mxGeometry>
        </mxCell>
        <mxCell id="eODNS1rkglVLY219tLkL-134" value="Capolinea" style="edgeLabel;html=1;align=center;verticalAlign=middle;resizable=0;points=[];" parent="eODNS1rkglVLY219tLkL-133" vertex="1" connectable="0">
          <mxGeometry x="-0.25" y="-2" relative="1" as="geometry">
            <mxPoint x="2" y="29" as="offset" />
          </mxGeometry>
        </mxCell>
        <mxCell id="eODNS1rkglVLY219tLkL-135" value="Indirizzo_Stazione" style="ellipse;whiteSpace=wrap;html=1;align=center;" parent="1" vertex="1">
          <mxGeometry x="560" y="720" width="110" height="41" as="geometry" />
        </mxCell>
        <mxCell id="eODNS1rkglVLY219tLkL-138" value="" style="html=1;verticalAlign=bottom;labelBackgroundColor=none;startArrow=oval;startFill=0;startSize=8;endArrow=none;rounded=0;entryX=1;entryY=1;entryDx=0;entryDy=0;" parent="1" target="eODNS1rkglVLY219tLkL-135" edge="1">
          <mxGeometry x="-1" y="3" relative="1" as="geometry">
            <mxPoint x="675" y="755" as="sourcePoint" />
            <mxPoint x="644.58" y="756" as="targetPoint" />
            <Array as="points" />
          </mxGeometry>
        </mxCell>
        <mxCell id="eODNS1rkglVLY219tLkL-139" value="Civico" style="edgeLabel;html=1;align=center;verticalAlign=middle;resizable=0;points=[];" parent="eODNS1rkglVLY219tLkL-138" vertex="1" connectable="0">
          <mxGeometry x="-0.25" y="-2" relative="1" as="geometry">
            <mxPoint x="34" y="1" as="offset" />
          </mxGeometry>
        </mxCell>
        <mxCell id="eODNS1rkglVLY219tLkL-142" value="" style="html=1;verticalAlign=bottom;labelBackgroundColor=none;startArrow=oval;startFill=0;startSize=8;endArrow=none;rounded=0;entryX=1;entryY=0.5;entryDx=0;entryDy=0;" parent="1" edge="1">
          <mxGeometry x="-1" y="3" relative="1" as="geometry">
            <mxPoint x="685" y="741" as="sourcePoint" />
            <mxPoint x="670" y="740.71" as="targetPoint" />
            <Array as="points" />
          </mxGeometry>
        </mxCell>
        <mxCell id="eODNS1rkglVLY219tLkL-143" value="Cap" style="edgeLabel;html=1;align=center;verticalAlign=middle;resizable=0;points=[];" parent="eODNS1rkglVLY219tLkL-142" vertex="1" connectable="0">
          <mxGeometry x="-0.25" y="-2" relative="1" as="geometry">
            <mxPoint x="25" as="offset" />
          </mxGeometry>
        </mxCell>
        <mxCell id="eODNS1rkglVLY219tLkL-144" value="" style="endArrow=none;html=1;rounded=0;exitX=1;exitY=0.5;exitDx=0;exitDy=0;entryX=0;entryY=0.5;entryDx=0;entryDy=0;" parent="1" source="eODNS1rkglVLY219tLkL-35" target="eODNS1rkglVLY219tLkL-135" edge="1">
          <mxGeometry width="50" height="50" relative="1" as="geometry">
            <mxPoint x="420" y="730" as="sourcePoint" />
            <mxPoint x="420" y="690" as="targetPoint" />
          </mxGeometry>
        </mxCell>
        <mxCell id="eODNS1rkglVLY219tLkL-153" value="" style="html=1;verticalAlign=bottom;labelBackgroundColor=none;startArrow=oval;startFill=0;startSize=8;endArrow=none;rounded=0;entryX=0.5;entryY=0;entryDx=0;entryDy=0;" parent="1" edge="1">
          <mxGeometry x="-1" y="3" relative="1" as="geometry">
            <mxPoint x="610.6" y="681" as="sourcePoint" />
            <mxPoint x="610" y="721" as="targetPoint" />
            <Array as="points" />
          </mxGeometry>
        </mxCell>
        <mxCell id="eODNS1rkglVLY219tLkL-154" value="Longitudine" style="edgeLabel;html=1;align=center;verticalAlign=middle;resizable=0;points=[];" parent="eODNS1rkglVLY219tLkL-153" vertex="1" connectable="0">
          <mxGeometry x="-0.25" y="-2" relative="1" as="geometry">
            <mxPoint x="-25" y="-27" as="offset" />
          </mxGeometry>
        </mxCell>
        <mxCell id="eODNS1rkglVLY219tLkL-155" value="" style="html=1;verticalAlign=bottom;labelBackgroundColor=none;startArrow=oval;startFill=0;startSize=8;endArrow=none;rounded=0;entryX=0.716;entryY=0.052;entryDx=0;entryDy=0;entryPerimeter=0;" parent="1" target="eODNS1rkglVLY219tLkL-135" edge="1">
          <mxGeometry x="-1" y="3" relative="1" as="geometry">
            <mxPoint x="640" y="680" as="sourcePoint" />
            <mxPoint x="631.7" y="720.16" as="targetPoint" />
            <Array as="points" />
          </mxGeometry>
        </mxCell>
        <mxCell id="eODNS1rkglVLY219tLkL-156" value="Latitudine" style="edgeLabel;html=1;align=center;verticalAlign=middle;resizable=0;points=[];" parent="eODNS1rkglVLY219tLkL-155" vertex="1" connectable="0">
          <mxGeometry x="-0.25" y="-2" relative="1" as="geometry">
            <mxPoint x="24" y="-30" as="offset" />
          </mxGeometry>
        </mxCell>
        <mxCell id="eODNS1rkglVLY219tLkL-159" value="" style="html=1;verticalAlign=bottom;labelBackgroundColor=none;startArrow=oval;startFill=0;startSize=8;endArrow=none;rounded=0;" parent="1" edge="1">
          <mxGeometry x="-1" y="3" relative="1" as="geometry">
            <mxPoint x="60" y="600" as="sourcePoint" />
            <mxPoint x="130" y="612" as="targetPoint" />
            <Array as="points">
              <mxPoint x="130" y="600" />
            </Array>
          </mxGeometry>
        </mxCell>
        <mxCell id="eODNS1rkglVLY219tLkL-160" value="Data Nascita" style="edgeLabel;html=1;align=center;verticalAlign=middle;resizable=0;points=[];" parent="eODNS1rkglVLY219tLkL-159" vertex="1" connectable="0">
          <mxGeometry x="-0.25" y="-2" relative="1" as="geometry">
            <mxPoint x="-71" y="-4" as="offset" />
          </mxGeometry>
        </mxCell>
        <mxCell id="eODNS1rkglVLY219tLkL-161" value="" style="html=1;verticalAlign=bottom;labelBackgroundColor=none;startArrow=oval;startFill=0;startSize=8;endArrow=none;rounded=0;" parent="1" edge="1">
          <mxGeometry x="-1" y="3" relative="1" as="geometry">
            <mxPoint x="207" y="582" as="sourcePoint" />
            <mxPoint x="207.00000000000003" y="612" as="targetPoint" />
            <Array as="points" />
          </mxGeometry>
        </mxCell>
        <mxCell id="eODNS1rkglVLY219tLkL-162" value="Data&amp;nbsp;&lt;div&gt;Assunzione&lt;/div&gt;" style="edgeLabel;html=1;align=center;verticalAlign=middle;resizable=0;points=[];" parent="eODNS1rkglVLY219tLkL-161" vertex="1" connectable="0">
          <mxGeometry x="-0.25" y="-2" relative="1" as="geometry">
            <mxPoint x="7" y="-31" as="offset" />
          </mxGeometry>
        </mxCell>
        <mxCell id="eODNS1rkglVLY219tLkL-165" value="" style="html=1;verticalAlign=bottom;labelBackgroundColor=none;startArrow=oval;startFill=1;startSize=8;endArrow=none;rounded=0;entryX=0.837;entryY=0.008;entryDx=0;entryDy=0;entryPerimeter=0;" parent="1" target="eODNS1rkglVLY219tLkL-8" edge="1">
          <mxGeometry x="-1" y="3" relative="1" as="geometry">
            <mxPoint x="520" y="470" as="sourcePoint" />
            <mxPoint x="456" y="490" as="targetPoint" />
            <Array as="points">
              <mxPoint x="444" y="470" />
            </Array>
          </mxGeometry>
        </mxCell>
        <mxCell id="eODNS1rkglVLY219tLkL-166" value="Codice Tratta" style="edgeLabel;html=1;align=center;verticalAlign=middle;resizable=0;points=[];" parent="eODNS1rkglVLY219tLkL-165" vertex="1" connectable="0">
          <mxGeometry x="-0.25" y="-2" relative="1" as="geometry">
            <mxPoint x="74" y="2" as="offset" />
          </mxGeometry>
        </mxCell>
        <mxCell id="eODNS1rkglVLY219tLkL-167" value="" style="html=1;verticalAlign=bottom;labelBackgroundColor=none;startArrow=oval;startFill=0;startSize=8;endArrow=none;rounded=0;entryX=1;entryY=0.5;entryDx=0;entryDy=0;" parent="1" edge="1">
          <mxGeometry x="-1" y="3" relative="1" as="geometry">
            <mxPoint x="520" y="495" as="sourcePoint" />
            <mxPoint x="460" y="494.5" as="targetPoint" />
            <Array as="points" />
          </mxGeometry>
        </mxCell>
        <mxCell id="eODNS1rkglVLY219tLkL-168" value="Tipologia" style="edgeLabel;html=1;align=center;verticalAlign=middle;resizable=0;points=[];" parent="eODNS1rkglVLY219tLkL-167" vertex="1" connectable="0">
          <mxGeometry x="-0.25" y="-2" relative="1" as="geometry">
            <mxPoint x="52" y="1" as="offset" />
          </mxGeometry>
        </mxCell>
        <mxCell id="eODNS1rkglVLY219tLkL-169" value="" style="html=1;verticalAlign=bottom;labelBackgroundColor=none;startArrow=oval;startFill=0;startSize=8;endArrow=none;rounded=0;entryX=1;entryY=0.5;entryDx=0;entryDy=0;" parent="1" edge="1">
          <mxGeometry x="-1" y="3" relative="1" as="geometry">
            <mxPoint x="520" y="509" as="sourcePoint" />
            <mxPoint x="460" y="508.5" as="targetPoint" />
            <Array as="points" />
          </mxGeometry>
        </mxCell>
        <mxCell id="eODNS1rkglVLY219tLkL-170" value="Orario Partenza" style="edgeLabel;html=1;align=center;verticalAlign=middle;resizable=0;points=[];" parent="eODNS1rkglVLY219tLkL-169" vertex="1" connectable="0">
          <mxGeometry x="-0.25" y="-2" relative="1" as="geometry">
            <mxPoint x="70" y="2" as="offset" />
          </mxGeometry>
        </mxCell>
        <mxCell id="eODNS1rkglVLY219tLkL-171" value="" style="html=1;verticalAlign=bottom;labelBackgroundColor=none;startArrow=oval;startFill=0;startSize=8;endArrow=none;rounded=0;entryX=1;entryY=0.5;entryDx=0;entryDy=0;" parent="1" edge="1">
          <mxGeometry x="-1" y="3" relative="1" as="geometry">
            <mxPoint x="520" y="523" as="sourcePoint" />
            <mxPoint x="460" y="522.5" as="targetPoint" />
            <Array as="points" />
          </mxGeometry>
        </mxCell>
        <mxCell id="eODNS1rkglVLY219tLkL-172" value="Orario Arrivo" style="edgeLabel;html=1;align=center;verticalAlign=middle;resizable=0;points=[];" parent="eODNS1rkglVLY219tLkL-171" vertex="1" connectable="0">
          <mxGeometry x="-0.25" y="-2" relative="1" as="geometry">
            <mxPoint x="62" y="3" as="offset" />
          </mxGeometry>
        </mxCell>
        <mxCell id="eODNS1rkglVLY219tLkL-173" value="" style="html=1;verticalAlign=bottom;labelBackgroundColor=none;startArrow=oval;startFill=0;startSize=8;endArrow=none;rounded=0;entryX=1;entryY=1;entryDx=0;entryDy=0;" parent="1" edge="1">
          <mxGeometry x="-1" y="3" relative="1" as="geometry">
            <mxPoint x="520" y="540" as="sourcePoint" />
            <mxPoint x="451" y="530" as="targetPoint" />
            <Array as="points">
              <mxPoint x="451" y="540" />
            </Array>
          </mxGeometry>
        </mxCell>
        <mxCell id="eODNS1rkglVLY219tLkL-174" value="Stazione Arrivo" style="edgeLabel;html=1;align=center;verticalAlign=middle;resizable=0;points=[];" parent="eODNS1rkglVLY219tLkL-173" vertex="1" connectable="0">
          <mxGeometry x="-0.25" y="-2" relative="1" as="geometry">
            <mxPoint x="76" y="2" as="offset" />
          </mxGeometry>
        </mxCell>
        <mxCell id="eODNS1rkglVLY219tLkL-175" value="" style="html=1;verticalAlign=bottom;labelBackgroundColor=none;startArrow=oval;startFill=0;startSize=8;endArrow=none;rounded=0;entryX=0.25;entryY=1;entryDx=0;entryDy=0;" parent="1" edge="1">
          <mxGeometry x="-1" y="3" relative="1" as="geometry">
            <mxPoint x="342" y="570" as="sourcePoint" />
            <mxPoint x="377" y="530" as="targetPoint" />
            <Array as="points">
              <mxPoint x="377" y="570" />
            </Array>
          </mxGeometry>
        </mxCell>
        <mxCell id="eODNS1rkglVLY219tLkL-176" value="Stazione Partenza" style="edgeLabel;html=1;align=center;verticalAlign=middle;resizable=0;points=[];" parent="eODNS1rkglVLY219tLkL-175" vertex="1" connectable="0">
          <mxGeometry x="-0.25" y="-2" relative="1" as="geometry">
            <mxPoint x="-38" y="18" as="offset" />
          </mxGeometry>
        </mxCell>
        <mxCell id="eODNS1rkglVLY219tLkL-177" value="" style="html=1;verticalAlign=bottom;labelBackgroundColor=none;startArrow=oval;startFill=0;startSize=8;endArrow=none;rounded=0;entryX=0.75;entryY=0;entryDx=0;entryDy=0;" parent="1" target="eODNS1rkglVLY219tLkL-8" edge="1">
          <mxGeometry x="-1" y="3" relative="1" as="geometry">
            <mxPoint x="520" y="450" as="sourcePoint" />
            <mxPoint x="450" y="490" as="targetPoint" />
            <Array as="points">
              <mxPoint x="435" y="450" />
            </Array>
          </mxGeometry>
        </mxCell>
        <mxCell id="eODNS1rkglVLY219tLkL-178" value="Data&amp;nbsp;&lt;span style=&quot;background-color: light-dark(#ffffff, var(--ge-dark-color, #121212)); color: light-dark(rgb(0, 0, 0), rgb(255, 255, 255));&quot;&gt;Inizio&lt;/span&gt;" style="edgeLabel;html=1;align=center;verticalAlign=middle;resizable=0;points=[];" parent="eODNS1rkglVLY219tLkL-177" vertex="1" connectable="0">
          <mxGeometry x="-0.25" y="-2" relative="1" as="geometry">
            <mxPoint x="79" y="2" as="offset" />
          </mxGeometry>
        </mxCell>
        <mxCell id="eODNS1rkglVLY219tLkL-179" value="" style="html=1;verticalAlign=bottom;labelBackgroundColor=none;startArrow=oval;startFill=0;startSize=8;endArrow=none;rounded=0;entryX=0.098;entryY=-0.006;entryDx=0;entryDy=0;entryPerimeter=0;" parent="1" target="eODNS1rkglVLY219tLkL-8" edge="1">
          <mxGeometry x="-1" y="3" relative="1" as="geometry">
            <mxPoint x="370" y="470" as="sourcePoint" />
            <mxPoint x="370" y="500" as="targetPoint" />
            <Array as="points" />
          </mxGeometry>
        </mxCell>
        <mxCell id="eODNS1rkglVLY219tLkL-180" value="Data fine" style="edgeLabel;html=1;align=center;verticalAlign=middle;resizable=0;points=[];" parent="eODNS1rkglVLY219tLkL-179" vertex="1" connectable="0">
          <mxGeometry x="-0.25" y="-2" relative="1" as="geometry">
            <mxPoint x="-8" y="-21" as="offset" />
          </mxGeometry>
        </mxCell>
        <mxCell id="eODNS1rkglVLY219tLkL-183" value="" style="html=1;verticalAlign=bottom;labelBackgroundColor=none;startArrow=oval;startFill=0;startSize=8;endArrow=none;rounded=0;entryX=1;entryY=0.75;entryDx=0;entryDy=0;" parent="1" edge="1">
          <mxGeometry x="-1" y="3" relative="1" as="geometry">
            <mxPoint x="640" y="161" as="sourcePoint" />
            <mxPoint x="590" y="161" as="targetPoint" />
            <Array as="points" />
          </mxGeometry>
        </mxCell>
        <mxCell id="eODNS1rkglVLY219tLkL-184" value="Classe" style="edgeLabel;html=1;align=center;verticalAlign=middle;resizable=0;points=[];" parent="eODNS1rkglVLY219tLkL-183" vertex="1" connectable="0">
          <mxGeometry x="-0.25" y="-2" relative="1" as="geometry">
            <mxPoint x="47" y="3" as="offset" />
          </mxGeometry>
        </mxCell>
        <mxCell id="eODNS1rkglVLY219tLkL-185" value="" style="html=1;verticalAlign=bottom;labelBackgroundColor=none;startArrow=oval;startFill=0;startSize=8;endArrow=none;rounded=0;entryX=0.75;entryY=1;entryDx=0;entryDy=0;" parent="1" target="eODNS1rkglVLY219tLkL-53" edge="1">
          <mxGeometry x="-1" y="3" relative="1" as="geometry">
            <mxPoint x="640" y="180" as="sourcePoint" />
            <mxPoint x="590" y="166" as="targetPoint" />
            <Array as="points">
              <mxPoint x="565" y="180" />
            </Array>
          </mxGeometry>
        </mxCell>
        <mxCell id="eODNS1rkglVLY219tLkL-186" value="Prezzo" style="edgeLabel;html=1;align=center;verticalAlign=middle;resizable=0;points=[];" parent="eODNS1rkglVLY219tLkL-185" vertex="1" connectable="0">
          <mxGeometry x="-0.25" y="-2" relative="1" as="geometry">
            <mxPoint x="55" y="2" as="offset" />
          </mxGeometry>
        </mxCell>
        <mxCell id="eODNS1rkglVLY219tLkL-187" value="" style="html=1;verticalAlign=bottom;labelBackgroundColor=none;startArrow=oval;startFill=1;startSize=8;endArrow=none;rounded=0;entryX=1;entryY=0.5;entryDx=0;entryDy=0;" parent="1" edge="1">
          <mxGeometry x="-1" y="3" relative="1" as="geometry">
            <mxPoint x="40" y="368" as="sourcePoint" />
            <mxPoint x="20" y="368" as="targetPoint" />
            <Array as="points" />
          </mxGeometry>
        </mxCell>
        <mxCell id="eODNS1rkglVLY219tLkL-188" value="Partita Iva" style="edgeLabel;html=1;align=center;verticalAlign=middle;resizable=0;points=[];" parent="eODNS1rkglVLY219tLkL-187" vertex="1" connectable="0">
          <mxGeometry x="-0.25" y="-2" relative="1" as="geometry">
            <mxPoint x="48" y="2" as="offset" />
          </mxGeometry>
        </mxCell>
        <mxCell id="GVSm5cRxoAovmWzhfuRe-1" value="Prenotazione" style="rounded=0;whiteSpace=wrap;html=1;" parent="1" vertex="1">
          <mxGeometry x="46.18" y="120" width="100" height="40" as="geometry" />
        </mxCell>
        <mxCell id="GVSm5cRxoAovmWzhfuRe-4" value="Genera" style="shape=rhombus;perimeter=rhombusPerimeter;whiteSpace=wrap;html=1;align=center;" parent="1" vertex="1">
          <mxGeometry x="320" y="120" width="120" height="60" as="geometry" />
        </mxCell>
        <mxCell id="GVSm5cRxoAovmWzhfuRe-7" value="" style="endArrow=none;html=1;rounded=0;exitX=1;exitY=0.5;exitDx=0;exitDy=0;entryX=0;entryY=0.5;entryDx=0;entryDy=0;" parent="1" source="GVSm5cRxoAovmWzhfuRe-4" target="eODNS1rkglVLY219tLkL-53" edge="1">
          <mxGeometry width="50" height="50" relative="1" as="geometry">
            <mxPoint x="306.18" y="60" as="sourcePoint" />
            <mxPoint x="356.18" y="60" as="targetPoint" />
          </mxGeometry>
        </mxCell>
        <mxCell id="GVSm5cRxoAovmWzhfuRe-8" value="" style="html=1;verticalAlign=bottom;labelBackgroundColor=none;startArrow=oval;startFill=1;startSize=8;endArrow=none;rounded=0;entryX=0.25;entryY=0;entryDx=0;entryDy=0;" parent="1" edge="1">
          <mxGeometry x="-1" y="3" relative="1" as="geometry">
            <mxPoint x="52" y="90" as="sourcePoint" />
            <mxPoint x="52.18" y="120" as="targetPoint" />
            <Array as="points" />
          </mxGeometry>
        </mxCell>
        <mxCell id="GVSm5cRxoAovmWzhfuRe-9" value="Numero&lt;div&gt;Prenotazione&lt;/div&gt;" style="edgeLabel;html=1;align=center;verticalAlign=middle;resizable=0;points=[];" parent="GVSm5cRxoAovmWzhfuRe-8" vertex="1" connectable="0">
          <mxGeometry x="-0.25" y="-2" relative="1" as="geometry">
            <mxPoint x="-13" y="-34" as="offset" />
          </mxGeometry>
        </mxCell>
        <mxCell id="GVSm5cRxoAovmWzhfuRe-14" value="" style="html=1;verticalAlign=bottom;labelBackgroundColor=none;startArrow=oval;startFill=0;startSize=8;endArrow=none;rounded=0;entryX=0;entryY=0.25;entryDx=0;entryDy=0;" parent="1" target="GVSm5cRxoAovmWzhfuRe-1" edge="1">
          <mxGeometry x="-1" y="3" relative="1" as="geometry">
            <mxPoint x="10" y="130" as="sourcePoint" />
            <mxPoint x="136.18" y="150" as="targetPoint" />
            <Array as="points" />
          </mxGeometry>
        </mxCell>
        <mxCell id="GVSm5cRxoAovmWzhfuRe-15" value="Numero&lt;div&gt;Passeggeri&lt;/div&gt;" style="edgeLabel;html=1;align=center;verticalAlign=middle;resizable=0;points=[];" parent="GVSm5cRxoAovmWzhfuRe-14" vertex="1" connectable="0">
          <mxGeometry x="-0.25" y="-2" relative="1" as="geometry">
            <mxPoint x="-49" y="-11" as="offset" />
          </mxGeometry>
        </mxCell>
        <mxCell id="GVSm5cRxoAovmWzhfuRe-18" value="" style="html=1;verticalAlign=bottom;labelBackgroundColor=none;startArrow=oval;startFill=0;startSize=8;endArrow=none;rounded=0;entryX=0.895;entryY=-0.012;entryDx=0;entryDy=0;entryPerimeter=0;" parent="1" target="eODNS1rkglVLY219tLkL-53" edge="1">
          <mxGeometry x="-1" y="3" relative="1" as="geometry">
            <mxPoint x="640" y="110" as="sourcePoint" />
            <mxPoint x="620" y="60" as="targetPoint" />
            <Array as="points">
              <mxPoint x="580" y="110" />
            </Array>
          </mxGeometry>
        </mxCell>
        <mxCell id="GVSm5cRxoAovmWzhfuRe-19" value="Numero Carrozza" style="edgeLabel;html=1;align=center;verticalAlign=middle;resizable=0;points=[];" parent="GVSm5cRxoAovmWzhfuRe-18" vertex="1" connectable="0">
          <mxGeometry x="-0.25" y="-2" relative="1" as="geometry">
            <mxPoint x="83" y="3" as="offset" />
          </mxGeometry>
        </mxCell>
        <mxCell id="GVSm5cRxoAovmWzhfuRe-20" value="" style="html=1;verticalAlign=bottom;labelBackgroundColor=none;startArrow=oval;startFill=0;startSize=8;endArrow=none;rounded=0;entryX=1;entryY=0.25;entryDx=0;entryDy=0;" parent="1" edge="1">
          <mxGeometry x="-1" y="3" relative="1" as="geometry">
            <mxPoint x="640" y="147" as="sourcePoint" />
            <mxPoint x="590" y="147" as="targetPoint" />
            <Array as="points" />
          </mxGeometry>
        </mxCell>
        <mxCell id="GVSm5cRxoAovmWzhfuRe-21" value="Lettera Posto" style="edgeLabel;html=1;align=center;verticalAlign=middle;resizable=0;points=[];" parent="GVSm5cRxoAovmWzhfuRe-20" vertex="1" connectable="0">
          <mxGeometry x="-0.25" y="-2" relative="1" as="geometry">
            <mxPoint x="64" y="1" as="offset" />
          </mxGeometry>
        </mxCell>
        <mxCell id="GVSm5cRxoAovmWzhfuRe-24" value="" style="html=1;verticalAlign=bottom;labelBackgroundColor=none;startArrow=oval;startFill=0;startSize=8;endArrow=none;rounded=0;entryX=0.75;entryY=0;entryDx=0;entryDy=0;" parent="1" target="GVSm5cRxoAovmWzhfuRe-1" edge="1">
          <mxGeometry x="-1" y="3" relative="1" as="geometry">
            <mxPoint x="121.18" y="100" as="sourcePoint" />
            <mxPoint x="326.17999999999995" y="110" as="targetPoint" />
            <Array as="points" />
          </mxGeometry>
        </mxCell>
        <mxCell id="GVSm5cRxoAovmWzhfuRe-25" value="Importo" style="edgeLabel;html=1;align=center;verticalAlign=middle;resizable=0;points=[];" parent="GVSm5cRxoAovmWzhfuRe-24" vertex="1" connectable="0">
          <mxGeometry x="-0.25" y="-2" relative="1" as="geometry">
            <mxPoint x="6" y="-25" as="offset" />
          </mxGeometry>
        </mxCell>
        <mxCell id="GVSm5cRxoAovmWzhfuRe-26" value="" style="endArrow=none;html=1;rounded=0;exitX=0;exitY=0.5;exitDx=0;exitDy=0;entryX=0.5;entryY=0;entryDx=0;entryDy=0;" parent="1" source="GVSm5cRxoAovmWzhfuRe-1" target="eODNS1rkglVLY219tLkL-3" edge="1">
          <mxGeometry width="50" height="50" relative="1" as="geometry">
            <mxPoint x="-20" y="250" as="sourcePoint" />
            <mxPoint x="-50" y="250" as="targetPoint" />
            <Array as="points">
              <mxPoint x="30" y="140" />
            </Array>
          </mxGeometry>
        </mxCell>
        <mxCell id="GVSm5cRxoAovmWzhfuRe-27" value="" style="html=1;verticalAlign=bottom;labelBackgroundColor=none;startArrow=oval;startFill=0;startSize=8;endArrow=none;rounded=0;entryX=1;entryY=0.75;entryDx=0;entryDy=0;" parent="1" target="eODNS1rkglVLY219tLkL-46" edge="1">
          <mxGeometry x="-1" y="3" relative="1" as="geometry">
            <mxPoint x="50" y="390" as="sourcePoint" />
            <mxPoint x="-40" y="250" as="targetPoint" />
            <Array as="points" />
          </mxGeometry>
        </mxCell>
        <mxCell id="GVSm5cRxoAovmWzhfuRe-28" value="Pec" style="edgeLabel;html=1;align=center;verticalAlign=middle;resizable=0;points=[];" parent="GVSm5cRxoAovmWzhfuRe-27" vertex="1" connectable="0">
          <mxGeometry x="-0.25" y="-2" relative="1" as="geometry">
            <mxPoint x="30" y="2" as="offset" />
          </mxGeometry>
        </mxCell>
        <mxCell id="GVSm5cRxoAovmWzhfuRe-29" value="" style="html=1;verticalAlign=bottom;labelBackgroundColor=none;startArrow=oval;startFill=0;startSize=8;endArrow=none;rounded=0;entryX=1;entryY=0.25;entryDx=0;entryDy=0;" parent="1" edge="1">
          <mxGeometry x="-1" y="3" relative="1" as="geometry">
            <mxPoint x="190" y="123" as="sourcePoint" />
            <mxPoint x="146.17999999999984" y="123" as="targetPoint" />
            <Array as="points" />
          </mxGeometry>
        </mxCell>
        <mxCell id="GVSm5cRxoAovmWzhfuRe-30" value="Data Partenza" style="edgeLabel;html=1;align=center;verticalAlign=middle;resizable=0;points=[];" parent="GVSm5cRxoAovmWzhfuRe-29" vertex="1" connectable="0">
          <mxGeometry x="-0.25" y="-2" relative="1" as="geometry">
            <mxPoint x="60" y="1" as="offset" />
          </mxGeometry>
        </mxCell>
        <mxCell id="GVSm5cRxoAovmWzhfuRe-31" value="" style="html=1;verticalAlign=bottom;labelBackgroundColor=none;startArrow=oval;startFill=0;startSize=8;endArrow=none;rounded=0;entryX=1;entryY=0.5;entryDx=0;entryDy=0;" parent="1" edge="1">
          <mxGeometry x="-1" y="3" relative="1" as="geometry">
            <mxPoint x="190" y="136" as="sourcePoint" />
            <mxPoint x="146.17999999999984" y="136" as="targetPoint" />
            <Array as="points" />
          </mxGeometry>
        </mxCell>
        <mxCell id="GVSm5cRxoAovmWzhfuRe-32" value="Ora Partenza" style="edgeLabel;html=1;align=center;verticalAlign=middle;resizable=0;points=[];" parent="GVSm5cRxoAovmWzhfuRe-31" vertex="1" connectable="0">
          <mxGeometry x="-0.25" y="-2" relative="1" as="geometry">
            <mxPoint x="57" y="2" as="offset" />
          </mxGeometry>
        </mxCell>
        <mxCell id="GVSm5cRxoAovmWzhfuRe-38" value="" style="html=1;verticalAlign=bottom;labelBackgroundColor=none;startArrow=oval;startFill=0;startSize=8;endArrow=none;rounded=0;entryX=1;entryY=0.25;entryDx=0;entryDy=0;" parent="1" edge="1">
          <mxGeometry x="-1" y="3" relative="1" as="geometry">
            <mxPoint x="640" y="133" as="sourcePoint" />
            <mxPoint x="590" y="133" as="targetPoint" />
            <Array as="points" />
          </mxGeometry>
        </mxCell>
        <mxCell id="GVSm5cRxoAovmWzhfuRe-39" value="Fila" style="edgeLabel;html=1;align=center;verticalAlign=middle;resizable=0;points=[];" parent="GVSm5cRxoAovmWzhfuRe-38" vertex="1" connectable="0">
          <mxGeometry x="-0.25" y="-2" relative="1" as="geometry">
            <mxPoint x="41" y="1" as="offset" />
          </mxGeometry>
        </mxCell>
        <mxCell id="GVSm5cRxoAovmWzhfuRe-42" value="" style="html=1;verticalAlign=bottom;labelBackgroundColor=none;startArrow=oval;startFill=0;startSize=8;endArrow=none;rounded=0;" parent="1" edge="1">
          <mxGeometry x="-1" y="3" relative="1" as="geometry">
            <mxPoint x="77" y="60" as="sourcePoint" />
            <mxPoint x="77" y="120" as="targetPoint" />
            <Array as="points" />
          </mxGeometry>
        </mxCell>
        <mxCell id="GVSm5cRxoAovmWzhfuRe-43" value="Numero&lt;div&gt;Cambi&lt;/div&gt;" style="edgeLabel;html=1;align=center;verticalAlign=middle;resizable=0;points=[];" parent="GVSm5cRxoAovmWzhfuRe-42" vertex="1" connectable="0">
          <mxGeometry x="-0.25" y="-2" relative="1" as="geometry">
            <mxPoint x="-3" y="-43" as="offset" />
          </mxGeometry>
        </mxCell>
        <mxCell id="GVSm5cRxoAovmWzhfuRe-46" value="" style="html=1;verticalAlign=bottom;labelBackgroundColor=none;startArrow=oval;startFill=0;startSize=8;endArrow=none;rounded=0;entryX=0;entryY=1;entryDx=0;entryDy=0;" parent="1" edge="1">
          <mxGeometry x="-1" y="3" relative="1" as="geometry">
            <mxPoint x="510" y="210" as="sourcePoint" />
            <mxPoint x="510" y="170" as="targetPoint" />
            <Array as="points" />
          </mxGeometry>
        </mxCell>
        <mxCell id="GVSm5cRxoAovmWzhfuRe-47" value="Stazione&lt;div&gt;Partenza&lt;/div&gt;" style="edgeLabel;html=1;align=center;verticalAlign=middle;resizable=0;points=[];" parent="GVSm5cRxoAovmWzhfuRe-46" vertex="1" connectable="0">
          <mxGeometry x="-0.25" y="-2" relative="1" as="geometry">
            <mxPoint x="-24" y="35" as="offset" />
          </mxGeometry>
        </mxCell>
        <mxCell id="GVSm5cRxoAovmWzhfuRe-48" value="" style="html=1;verticalAlign=bottom;labelBackgroundColor=none;startArrow=oval;startFill=0;startSize=8;endArrow=none;rounded=0;entryX=0.25;entryY=1;entryDx=0;entryDy=0;" parent="1" edge="1">
          <mxGeometry x="-1" y="3" relative="1" as="geometry">
            <mxPoint x="538" y="210" as="sourcePoint" />
            <mxPoint x="538" y="170" as="targetPoint" />
            <Array as="points" />
          </mxGeometry>
        </mxCell>
        <mxCell id="GVSm5cRxoAovmWzhfuRe-49" value="Stazione&lt;div&gt;Arrivo&lt;/div&gt;" style="edgeLabel;html=1;align=center;verticalAlign=middle;resizable=0;points=[];" parent="GVSm5cRxoAovmWzhfuRe-48" vertex="1" connectable="0">
          <mxGeometry x="-0.25" y="-2" relative="1" as="geometry">
            <mxPoint x="20" y="35" as="offset" />
          </mxGeometry>
        </mxCell>
        <mxCell id="GVSm5cRxoAovmWzhfuRe-50" value="" style="html=1;verticalAlign=bottom;labelBackgroundColor=none;startArrow=oval;startFill=0;startSize=8;endArrow=none;rounded=0;entryX=0.5;entryY=0;entryDx=0;entryDy=0;" parent="1" edge="1">
          <mxGeometry x="-1" y="3" relative="1" as="geometry">
            <mxPoint x="547" y="109" as="sourcePoint" />
            <mxPoint x="547" y="129" as="targetPoint" />
            <Array as="points" />
          </mxGeometry>
        </mxCell>
        <mxCell id="GVSm5cRxoAovmWzhfuRe-51" value="Data&amp;nbsp;&lt;div&gt;Validita&lt;/div&gt;" style="edgeLabel;html=1;align=center;verticalAlign=middle;resizable=0;points=[];" parent="GVSm5cRxoAovmWzhfuRe-50" vertex="1" connectable="0">
          <mxGeometry x="-0.25" y="-2" relative="1" as="geometry">
            <mxPoint x="4" y="-28" as="offset" />
          </mxGeometry>
        </mxCell>
        <mxCell id="GVSm5cRxoAovmWzhfuRe-52" value="" style="endArrow=none;html=1;rounded=0;exitX=0.75;exitY=0;exitDx=0;exitDy=0;entryX=0;entryY=0.5;entryDx=0;entryDy=0;" parent="1" target="eODNS1rkglVLY219tLkL-7" edge="1">
          <mxGeometry width="50" height="50" relative="1" as="geometry">
            <mxPoint x="421" y="490" as="sourcePoint" />
            <mxPoint x="516" y="350" as="targetPoint" />
            <Array as="points">
              <mxPoint x="421" y="350" />
            </Array>
          </mxGeometry>
        </mxCell>
        <mxCell id="GVSm5cRxoAovmWzhfuRe-53" value="" style="html=1;verticalAlign=bottom;labelBackgroundColor=none;startArrow=oval;startFill=0;startSize=8;endArrow=none;rounded=0;entryX=0.25;entryY=0;entryDx=0;entryDy=0;" parent="1" target="eODNS1rkglVLY219tLkL-5" edge="1">
          <mxGeometry x="-1" y="3" relative="1" as="geometry">
            <mxPoint x="735" y="300" as="sourcePoint" />
            <mxPoint x="840" y="340" as="targetPoint" />
            <Array as="points" />
          </mxGeometry>
        </mxCell>
        <mxCell id="GVSm5cRxoAovmWzhfuRe-54" value="Numero Posti" style="edgeLabel;html=1;align=center;verticalAlign=middle;resizable=0;points=[];" parent="GVSm5cRxoAovmWzhfuRe-53" vertex="1" connectable="0">
          <mxGeometry x="-0.25" y="-2" relative="1" as="geometry">
            <mxPoint x="-13" y="-27" as="offset" />
          </mxGeometry>
        </mxCell>
        <mxCell id="GVSm5cRxoAovmWzhfuRe-55" value="" style="html=1;verticalAlign=bottom;labelBackgroundColor=none;startArrow=oval;startFill=0;startSize=8;endArrow=none;rounded=0;entryX=0;entryY=0.75;entryDx=0;entryDy=0;" parent="1" edge="1">
          <mxGeometry x="-1" y="3" relative="1" as="geometry">
            <mxPoint x="310" y="523" as="sourcePoint" />
            <mxPoint x="360" y="523" as="targetPoint" />
            <Array as="points" />
          </mxGeometry>
        </mxCell>
        <mxCell id="GVSm5cRxoAovmWzhfuRe-56" value="Posti&lt;div&gt;Disponibili&lt;/div&gt;" style="edgeLabel;html=1;align=center;verticalAlign=middle;resizable=0;points=[];" parent="GVSm5cRxoAovmWzhfuRe-55" vertex="1" connectable="0">
          <mxGeometry x="-0.25" y="-2" relative="1" as="geometry">
            <mxPoint x="-49" y="5" as="offset" />
          </mxGeometry>
        </mxCell>
        <mxCell id="GVSm5cRxoAovmWzhfuRe-57" value="(0,N)" style="text;html=1;align=center;verticalAlign=middle;whiteSpace=wrap;rounded=0;" parent="1" vertex="1">
          <mxGeometry x="-60" y="220" width="60" height="30" as="geometry" />
        </mxCell>
        <mxCell id="GVSm5cRxoAovmWzhfuRe-58" value="(1,1)" style="text;html=1;align=center;verticalAlign=middle;whiteSpace=wrap;rounded=0;" parent="1" vertex="1">
          <mxGeometry x="22" y="197" width="50" height="20" as="geometry" />
        </mxCell>
        <mxCell id="GVSm5cRxoAovmWzhfuRe-60" value="(1,N)" style="text;html=1;align=center;verticalAlign=middle;whiteSpace=wrap;rounded=0;" parent="1" vertex="1">
          <mxGeometry x="285" y="128" width="50" height="20" as="geometry" />
        </mxCell>
        <mxCell id="GVSm5cRxoAovmWzhfuRe-61" value="(1,1)" style="text;html=1;align=center;verticalAlign=middle;whiteSpace=wrap;rounded=0;" parent="1" vertex="1">
          <mxGeometry x="429" y="127" width="50" height="20" as="geometry" />
        </mxCell>
        <mxCell id="GVSm5cRxoAovmWzhfuRe-64" value="(1,N)" style="text;html=1;align=center;verticalAlign=middle;whiteSpace=wrap;rounded=0;" parent="1" vertex="1">
          <mxGeometry x="401" y="583" width="50" height="20" as="geometry" />
        </mxCell>
        <mxCell id="GVSm5cRxoAovmWzhfuRe-65" value="(1,N)" style="text;html=1;align=center;verticalAlign=middle;whiteSpace=wrap;rounded=0;" parent="1" vertex="1">
          <mxGeometry x="360" y="660" width="50" height="20" as="geometry" />
        </mxCell>
        <mxCell id="GVSm5cRxoAovmWzhfuRe-66" value="(1,N)" style="text;html=1;align=center;verticalAlign=middle;whiteSpace=wrap;rounded=0;" parent="1" vertex="1">
          <mxGeometry x="490" y="350" width="50" height="20" as="geometry" />
        </mxCell>
        <mxCell id="GVSm5cRxoAovmWzhfuRe-67" value="(0,N)" style="text;html=1;align=center;verticalAlign=middle;whiteSpace=wrap;rounded=0;" parent="1" vertex="1">
          <mxGeometry x="640" y="330" width="50" height="20" as="geometry" />
        </mxCell>
        <mxCell id="GVSm5cRxoAovmWzhfuRe-68" value="(0,1)" style="text;html=1;align=center;verticalAlign=middle;whiteSpace=wrap;rounded=0;" parent="1" vertex="1">
          <mxGeometry x="130" y="540" width="50" height="20" as="geometry" />
        </mxCell>
        <mxCell id="GVSm5cRxoAovmWzhfuRe-69" value="(1,N)" style="text;html=1;align=center;verticalAlign=middle;whiteSpace=wrap;rounded=0;" parent="1" vertex="1">
          <mxGeometry x="220" y="490" width="50" height="20" as="geometry" />
        </mxCell>
        <mxCell id="hilMv3FYR6camBwlEuAL-1" value="" style="html=1;verticalAlign=bottom;labelBackgroundColor=none;startArrow=oval;startFill=0;startSize=8;endArrow=none;rounded=0;entryX=0.63;entryY=1;entryDx=0;entryDy=0;entryPerimeter=0;" parent="1" target="eODNS1rkglVLY219tLkL-53" edge="1">
          <mxGeometry x="-1" y="3" relative="1" as="geometry">
            <mxPoint x="640" y="200" as="sourcePoint" />
            <mxPoint x="550" y="170" as="targetPoint" />
            <Array as="points">
              <mxPoint x="553" y="200" />
            </Array>
          </mxGeometry>
        </mxCell>
        <mxCell id="hilMv3FYR6camBwlEuAL-2" value="Token" style="edgeLabel;html=1;align=center;verticalAlign=middle;resizable=0;points=[];" parent="hilMv3FYR6camBwlEuAL-1" vertex="1" connectable="0">
          <mxGeometry x="-0.25" y="-2" relative="1" as="geometry">
            <mxPoint x="71" y="2" as="offset" />
          </mxGeometry>
        </mxCell>
        <mxCell id="Gv1RzVRWYOlfWdWk6Ut9-1" value="Prevede" style="shape=rhombus;perimeter=rhombusPerimeter;whiteSpace=wrap;html=1;align=center;" parent="1" vertex="1">
          <mxGeometry x="580" y="548" width="120" height="60" as="geometry" />
        </mxCell>
        <mxCell id="Gv1RzVRWYOlfWdWk6Ut9-2" value="Tariffa" style="whiteSpace=wrap;html=1;align=center;" parent="1" vertex="1">
          <mxGeometry x="774" y="558" width="100" height="40" as="geometry" />
        </mxCell>
        <mxCell id="Gv1RzVRWYOlfWdWk6Ut9-3" value="" style="html=1;verticalAlign=bottom;labelBackgroundColor=none;startArrow=oval;startFill=1;startSize=8;endArrow=none;rounded=0;entryX=1;entryY=0.5;entryDx=0;entryDy=0;" parent="1" target="Gv1RzVRWYOlfWdWk6Ut9-2" edge="1">
          <mxGeometry x="-1" y="3" relative="1" as="geometry">
            <mxPoint x="897" y="578" as="sourcePoint" />
            <mxPoint x="817.42" y="368" as="targetPoint" />
            <Array as="points" />
          </mxGeometry>
        </mxCell>
        <mxCell id="Gv1RzVRWYOlfWdWk6Ut9-4" value="ID" style="edgeLabel;html=1;align=center;verticalAlign=middle;resizable=0;points=[];" parent="Gv1RzVRWYOlfWdWk6Ut9-3" vertex="1" connectable="0">
          <mxGeometry x="-0.25" y="-2" relative="1" as="geometry">
            <mxPoint x="25" y="2" as="offset" />
          </mxGeometry>
        </mxCell>
        <mxCell id="Gv1RzVRWYOlfWdWk6Ut9-6" value="" style="html=1;verticalAlign=bottom;labelBackgroundColor=none;startArrow=oval;startFill=0;startSize=8;endArrow=none;rounded=0;entryX=0.25;entryY=1;entryDx=0;entryDy=0;" parent="1" target="Gv1RzVRWYOlfWdWk6Ut9-2" edge="1">
          <mxGeometry x="-1" y="3" relative="1" as="geometry">
            <mxPoint x="799" y="678" as="sourcePoint" />
            <mxPoint x="617" y="668" as="targetPoint" />
            <Array as="points" />
          </mxGeometry>
        </mxCell>
        <mxCell id="Gv1RzVRWYOlfWdWk6Ut9-7" value="Data inizio&lt;div&gt;periodo&lt;/div&gt;" style="edgeLabel;html=1;align=center;verticalAlign=middle;resizable=0;points=[];" parent="Gv1RzVRWYOlfWdWk6Ut9-6" vertex="1" connectable="0">
          <mxGeometry x="-0.25" y="-2" relative="1" as="geometry">
            <mxPoint x="7" y="52" as="offset" />
          </mxGeometry>
        </mxCell>
        <mxCell id="Gv1RzVRWYOlfWdWk6Ut9-8" value="" style="html=1;verticalAlign=bottom;labelBackgroundColor=none;startArrow=oval;startFill=0;startSize=8;endArrow=none;rounded=0;entryX=0.5;entryY=1;entryDx=0;entryDy=0;" parent="1" target="Gv1RzVRWYOlfWdWk6Ut9-2" edge="1">
          <mxGeometry x="-1" y="3" relative="1" as="geometry">
            <mxPoint x="824" y="628" as="sourcePoint" />
            <mxPoint x="797" y="608" as="targetPoint" />
            <Array as="points" />
          </mxGeometry>
        </mxCell>
        <mxCell id="Gv1RzVRWYOlfWdWk6Ut9-9" value="Data inizio&lt;div&gt;periodo&lt;/div&gt;" style="edgeLabel;html=1;align=center;verticalAlign=middle;resizable=0;points=[];" parent="Gv1RzVRWYOlfWdWk6Ut9-8" vertex="1" connectable="0">
          <mxGeometry x="-0.25" y="-2" relative="1" as="geometry">
            <mxPoint x="7" y="38" as="offset" />
          </mxGeometry>
        </mxCell>
        <mxCell id="Gv1RzVRWYOlfWdWk6Ut9-10" value="" style="html=1;verticalAlign=bottom;labelBackgroundColor=none;startArrow=oval;startFill=0;startSize=8;endArrow=none;rounded=0;entryX=0.75;entryY=1;entryDx=0;entryDy=0;" parent="1" target="Gv1RzVRWYOlfWdWk6Ut9-2" edge="1">
          <mxGeometry x="-1" y="3" relative="1" as="geometry">
            <mxPoint x="849" y="628" as="sourcePoint" />
            <mxPoint x="617" y="688" as="targetPoint" />
            <Array as="points" />
          </mxGeometry>
        </mxCell>
        <mxCell id="Gv1RzVRWYOlfWdWk6Ut9-11" value="Importo" style="edgeLabel;html=1;align=center;verticalAlign=middle;resizable=0;points=[];" parent="Gv1RzVRWYOlfWdWk6Ut9-10" vertex="1" connectable="0">
          <mxGeometry x="-0.25" y="-2" relative="1" as="geometry">
            <mxPoint x="23" y="11" as="offset" />
          </mxGeometry>
        </mxCell>
        <mxCell id="Gv1RzVRWYOlfWdWk6Ut9-12" value="" style="endArrow=none;html=1;rounded=0;exitX=0.797;exitY=1.005;exitDx=0;exitDy=0;entryX=0;entryY=0.5;entryDx=0;entryDy=0;exitPerimeter=0;" parent="1" source="eODNS1rkglVLY219tLkL-8" target="Gv1RzVRWYOlfWdWk6Ut9-1" edge="1">
          <mxGeometry width="50" height="50" relative="1" as="geometry">
            <mxPoint x="410" y="750" as="sourcePoint" />
            <mxPoint x="410" y="690" as="targetPoint" />
            <Array as="points">
              <mxPoint x="440" y="580" />
              <mxPoint x="470" y="580" />
              <mxPoint x="490" y="580" />
            </Array>
          </mxGeometry>
        </mxCell>
        <mxCell id="Gv1RzVRWYOlfWdWk6Ut9-14" value="(1,N)" style="text;html=1;align=center;verticalAlign=middle;whiteSpace=wrap;rounded=0;" parent="1" vertex="1">
          <mxGeometry x="542" y="579" width="50" height="20" as="geometry" />
        </mxCell>
        <mxCell id="Gv1RzVRWYOlfWdWk6Ut9-15" value="(0,N)" style="text;html=1;align=center;verticalAlign=middle;whiteSpace=wrap;rounded=0;" parent="1" vertex="1">
          <mxGeometry x="688" y="560" width="50" height="20" as="geometry" />
        </mxCell>
        <mxCell id="Gv1RzVRWYOlfWdWk6Ut9-16" value="" style="html=1;verticalAlign=bottom;labelBackgroundColor=none;startArrow=oval;startFill=0;startSize=8;endArrow=none;rounded=0;entryX=0;entryY=0;entryDx=0;entryDy=0;" parent="1" edge="1">
          <mxGeometry x="-1" y="3" relative="1" as="geometry">
            <mxPoint x="-200" y="120" as="sourcePoint" />
            <mxPoint x="-200" y="150" as="targetPoint" />
            <Array as="points" />
          </mxGeometry>
        </mxCell>
        <mxCell id="Gv1RzVRWYOlfWdWk6Ut9-17" value="Provincia" style="edgeLabel;html=1;align=center;verticalAlign=middle;resizable=0;points=[];" parent="Gv1RzVRWYOlfWdWk6Ut9-16" vertex="1" connectable="0">
          <mxGeometry x="-0.25" y="-2" relative="1" as="geometry">
            <mxPoint x="-58" y="-41" as="offset" />
          </mxGeometry>
        </mxCell>
        <mxCell id="Gv1RzVRWYOlfWdWk6Ut9-18" value="" style="html=1;verticalAlign=bottom;labelBackgroundColor=none;startArrow=oval;startFill=0;startSize=8;endArrow=none;rounded=0;entryX=0.799;entryY=0.093;entryDx=0;entryDy=0;entryPerimeter=0;" parent="1" target="eODNS1rkglVLY219tLkL-9" edge="1">
          <mxGeometry x="-1" y="3" relative="1" as="geometry">
            <mxPoint x="-166" y="100" as="sourcePoint" />
            <mxPoint x="-160" y="160" as="targetPoint" />
            <Array as="points" />
          </mxGeometry>
        </mxCell>
        <mxCell id="Gv1RzVRWYOlfWdWk6Ut9-19" value="Comune" style="edgeLabel;html=1;align=center;verticalAlign=middle;resizable=0;points=[];" parent="Gv1RzVRWYOlfWdWk6Ut9-18" vertex="1" connectable="0">
          <mxGeometry x="-0.25" y="-2" relative="1" as="geometry">
            <mxPoint x="17" y="-36" as="offset" />
          </mxGeometry>
        </mxCell>
        <mxCell id="Gv1RzVRWYOlfWdWk6Ut9-20" value="" style="html=1;verticalAlign=bottom;labelBackgroundColor=none;startArrow=oval;startFill=0;startSize=8;endArrow=none;rounded=0;entryX=0.281;entryY=0.049;entryDx=0;entryDy=0;entryPerimeter=0;" parent="1" target="eODNS1rkglVLY219tLkL-9" edge="1">
          <mxGeometry x="-1" y="3" relative="1" as="geometry">
            <mxPoint x="-233" y="100" as="sourcePoint" />
            <mxPoint x="-215" y="165" as="targetPoint" />
            <Array as="points" />
          </mxGeometry>
        </mxCell>
        <mxCell id="Gv1RzVRWYOlfWdWk6Ut9-21" value="Citta" style="edgeLabel;html=1;align=center;verticalAlign=middle;resizable=0;points=[];" parent="Gv1RzVRWYOlfWdWk6Ut9-20" vertex="1" connectable="0">
          <mxGeometry x="-0.25" y="-2" relative="1" as="geometry">
            <mxPoint x="30" y="-16" as="offset" />
          </mxGeometry>
        </mxCell>
        <mxCell id="Gv1RzVRWYOlfWdWk6Ut9-22" value="" style="html=1;verticalAlign=bottom;labelBackgroundColor=none;startArrow=oval;startFill=0;startSize=8;endArrow=none;rounded=0;entryX=0;entryY=1;entryDx=0;entryDy=0;" parent="1" target="eODNS1rkglVLY219tLkL-135" edge="1">
          <mxGeometry x="-1" y="3" relative="1" as="geometry">
            <mxPoint x="575" y="801" as="sourcePoint" />
            <mxPoint x="565" y="901" as="targetPoint" />
            <Array as="points" />
          </mxGeometry>
        </mxCell>
        <mxCell id="Gv1RzVRWYOlfWdWk6Ut9-23" value="Provincia" style="edgeLabel;html=1;align=center;verticalAlign=middle;resizable=0;points=[];" parent="Gv1RzVRWYOlfWdWk6Ut9-22" vertex="1" connectable="0">
          <mxGeometry x="-0.25" y="-2" relative="1" as="geometry">
            <mxPoint x="-12" y="30" as="offset" />
          </mxGeometry>
        </mxCell>
        <mxCell id="Gv1RzVRWYOlfWdWk6Ut9-24" value="" style="html=1;verticalAlign=bottom;labelBackgroundColor=none;startArrow=oval;startFill=0;startSize=8;endArrow=none;rounded=0;entryX=0.201;entryY=0.89;entryDx=0;entryDy=0;entryPerimeter=0;" parent="1" edge="1">
          <mxGeometry x="-1" y="3" relative="1" as="geometry">
            <mxPoint x="635" y="803" as="sourcePoint" />
            <mxPoint x="635.0999999999999" y="760" as="targetPoint" />
            <Array as="points" />
          </mxGeometry>
        </mxCell>
        <mxCell id="Gv1RzVRWYOlfWdWk6Ut9-25" value="Comune" style="edgeLabel;html=1;align=center;verticalAlign=middle;resizable=0;points=[];" parent="Gv1RzVRWYOlfWdWk6Ut9-24" vertex="1" connectable="0">
          <mxGeometry x="-0.25" y="-2" relative="1" as="geometry">
            <mxPoint x="-3" y="29" as="offset" />
          </mxGeometry>
        </mxCell>
        <mxCell id="Gv1RzVRWYOlfWdWk6Ut9-26" value="" style="html=1;verticalAlign=bottom;labelBackgroundColor=none;startArrow=oval;startFill=0;startSize=8;endArrow=none;rounded=0;entryX=0;entryY=0;entryDx=0;entryDy=0;" parent="1" target="eODNS1rkglVLY219tLkL-135" edge="1">
          <mxGeometry x="-1" y="3" relative="1" as="geometry">
            <mxPoint x="575" y="701" as="sourcePoint" />
            <mxPoint x="759.52" y="923" as="targetPoint" />
            <Array as="points" />
          </mxGeometry>
        </mxCell>
        <mxCell id="Gv1RzVRWYOlfWdWk6Ut9-27" value="Citta" style="edgeLabel;html=1;align=center;verticalAlign=middle;resizable=0;points=[];" parent="Gv1RzVRWYOlfWdWk6Ut9-26" vertex="1" connectable="0">
          <mxGeometry x="-0.25" y="-2" relative="1" as="geometry">
            <mxPoint x="-15" y="-12" as="offset" />
          </mxGeometry>
        </mxCell>
        <mxCell id="Gv1RzVRWYOlfWdWk6Ut9-28" value="" style="html=1;verticalAlign=bottom;labelBackgroundColor=none;startArrow=oval;startFill=0;startSize=8;endArrow=none;rounded=0;entryX=0.5;entryY=0;entryDx=0;entryDy=0;" parent="1" target="GVSm5cRxoAovmWzhfuRe-1" edge="1">
          <mxGeometry x="-1" y="3" relative="1" as="geometry">
            <mxPoint x="96" y="70" as="sourcePoint" />
            <mxPoint x="120" y="130" as="targetPoint" />
            <Array as="points" />
          </mxGeometry>
        </mxCell>
        <mxCell id="Gv1RzVRWYOlfWdWk6Ut9-29" value="Stato&lt;div&gt;Prenotazione&lt;/div&gt;" style="edgeLabel;html=1;align=center;verticalAlign=middle;resizable=0;points=[];" parent="Gv1RzVRWYOlfWdWk6Ut9-28" vertex="1" connectable="0">
          <mxGeometry x="-0.25" y="-2" relative="1" as="geometry">
            <mxPoint x="33" y="-38" as="offset" />
          </mxGeometry>
        </mxCell>
        <mxCell id="Gv1RzVRWYOlfWdWk6Ut9-31" value="Operatore" style="whiteSpace=wrap;html=1;align=center;" parent="1" vertex="1">
          <mxGeometry x="30" y="722" width="100" height="40" as="geometry" />
        </mxCell>
        <mxCell id="Gv1RzVRWYOlfWdWk6Ut9-32" value="Amministrativo" style="whiteSpace=wrap;html=1;align=center;" parent="1" vertex="1">
          <mxGeometry x="200" y="722" width="100" height="40" as="geometry" />
        </mxCell>
        <mxCell id="Gv1RzVRWYOlfWdWk6Ut9-33" value="" style="shape=flexArrow;endArrow=classic;html=1;rounded=0;entryX=0.5;entryY=1;entryDx=0;entryDy=0;fillColor=light-dark(#030303, #ededed);" parent="1" target="eODNS1rkglVLY219tLkL-12" edge="1">
          <mxGeometry width="50" height="50" relative="1" as="geometry">
            <mxPoint x="170" y="692" as="sourcePoint" />
            <mxPoint x="300" y="632" as="targetPoint" />
          </mxGeometry>
        </mxCell>
        <mxCell id="Gv1RzVRWYOlfWdWk6Ut9-34" value="" style="endArrow=none;html=1;rounded=0;exitX=0.5;exitY=0;exitDx=0;exitDy=0;" parent="1" source="Gv1RzVRWYOlfWdWk6Ut9-31" edge="1">
          <mxGeometry width="50" height="50" relative="1" as="geometry">
            <mxPoint x="390" y="762" as="sourcePoint" />
            <mxPoint x="80" y="692" as="targetPoint" />
          </mxGeometry>
        </mxCell>
        <mxCell id="Gv1RzVRWYOlfWdWk6Ut9-35" value="" style="endArrow=none;html=1;rounded=0;exitX=0.5;exitY=0;exitDx=0;exitDy=0;" parent="1" source="Gv1RzVRWYOlfWdWk6Ut9-32" edge="1">
          <mxGeometry width="50" height="50" relative="1" as="geometry">
            <mxPoint x="90" y="732" as="sourcePoint" />
            <mxPoint x="250" y="692" as="targetPoint" />
          </mxGeometry>
        </mxCell>
        <mxCell id="Gv1RzVRWYOlfWdWk6Ut9-36" value="" style="endArrow=none;html=1;rounded=0;" parent="1" edge="1">
          <mxGeometry width="50" height="50" relative="1" as="geometry">
            <mxPoint x="250" y="692" as="sourcePoint" />
            <mxPoint x="80" y="692" as="targetPoint" />
          </mxGeometry>
        </mxCell>
        <mxCell id="Gv1RzVRWYOlfWdWk6Ut9-37" value="" style="html=1;verticalAlign=bottom;labelBackgroundColor=none;startArrow=oval;startFill=0;startSize=8;endArrow=none;rounded=0;entryX=0.5;entryY=1;entryDx=0;entryDy=0;" parent="1" edge="1">
          <mxGeometry x="-1" y="3" relative="1" as="geometry">
            <mxPoint x="70" y="782" as="sourcePoint" />
            <mxPoint x="70" y="762" as="targetPoint" />
            <Array as="points" />
          </mxGeometry>
        </mxCell>
        <mxCell id="Gv1RzVRWYOlfWdWk6Ut9-38" value="Tipologia" style="edgeLabel;html=1;align=center;verticalAlign=middle;resizable=0;points=[];" parent="Gv1RzVRWYOlfWdWk6Ut9-37" vertex="1" connectable="0">
          <mxGeometry x="-0.25" y="-2" relative="1" as="geometry">
            <mxPoint x="-9" y="20" as="offset" />
          </mxGeometry>
        </mxCell>
        <mxCell id="Gv1RzVRWYOlfWdWk6Ut9-39" value="" style="html=1;verticalAlign=bottom;labelBackgroundColor=none;startArrow=oval;startFill=0;startSize=8;endArrow=none;rounded=0;entryX=0.5;entryY=1;entryDx=0;entryDy=0;" parent="1" edge="1">
          <mxGeometry x="-1" y="3" relative="1" as="geometry">
            <mxPoint x="240" y="782" as="sourcePoint" />
            <mxPoint x="240" y="762" as="targetPoint" />
            <Array as="points" />
          </mxGeometry>
        </mxCell>
        <mxCell id="Gv1RzVRWYOlfWdWk6Ut9-40" value="Ufficio Riferimento" style="edgeLabel;html=1;align=center;verticalAlign=middle;resizable=0;points=[];" parent="Gv1RzVRWYOlfWdWk6Ut9-39" vertex="1" connectable="0">
          <mxGeometry x="-0.25" y="-2" relative="1" as="geometry">
            <mxPoint x="-9" y="21" as="offset" />
          </mxGeometry>
        </mxCell>
        <mxCell id="Gv1RzVRWYOlfWdWk6Ut9-45" value="" style="endArrow=none;html=1;rounded=0;exitX=0;exitY=0.5;exitDx=0;exitDy=0;entryX=1;entryY=0.5;entryDx=0;entryDy=0;" parent="1" source="Gv1RzVRWYOlfWdWk6Ut9-2" target="Gv1RzVRWYOlfWdWk6Ut9-1" edge="1">
          <mxGeometry width="50" height="50" relative="1" as="geometry">
            <mxPoint x="764" y="578" as="sourcePoint" />
            <mxPoint x="704" y="578" as="targetPoint" />
          </mxGeometry>
        </mxCell>
        <mxCell id="Gv1RzVRWYOlfWdWk6Ut9-47" value="Include" style="shape=rhombus;perimeter=rhombusPerimeter;whiteSpace=wrap;html=1;align=center;" parent="1" vertex="1">
          <mxGeometry x="200" y="280" width="120" height="60" as="geometry" />
        </mxCell>
        <mxCell id="Gv1RzVRWYOlfWdWk6Ut9-50" value="" style="endArrow=none;html=1;rounded=0;exitX=0.625;exitY=0.996;exitDx=0;exitDy=0;entryX=0.5;entryY=0;entryDx=0;entryDy=0;exitPerimeter=0;" parent="1" source="GVSm5cRxoAovmWzhfuRe-1" target="Gv1RzVRWYOlfWdWk6Ut9-47" edge="1">
          <mxGeometry width="50" height="50" relative="1" as="geometry">
            <mxPoint x="120" y="270" as="sourcePoint" />
            <mxPoint x="130" y="280" as="targetPoint" />
            <Array as="points">
              <mxPoint x="109" y="230" />
              <mxPoint x="260" y="230" />
            </Array>
          </mxGeometry>
        </mxCell>
        <mxCell id="Gv1RzVRWYOlfWdWk6Ut9-51" value="" style="endArrow=none;html=1;rounded=0;exitX=1;exitY=0.5;exitDx=0;exitDy=0;entryX=0.5;entryY=0;entryDx=0;entryDy=0;" parent="1" source="Gv1RzVRWYOlfWdWk6Ut9-47" edge="1">
          <mxGeometry width="50" height="50" relative="1" as="geometry">
            <mxPoint x="274.99999999999955" y="330" as="sourcePoint" />
            <mxPoint x="394.99999999999955" y="490" as="targetPoint" />
            <Array as="points">
              <mxPoint x="395" y="310" />
            </Array>
          </mxGeometry>
        </mxCell>
        <mxCell id="Gv1RzVRWYOlfWdWk6Ut9-52" value="(1,N)" style="text;html=1;align=center;verticalAlign=middle;whiteSpace=wrap;rounded=0;" parent="1" vertex="1">
          <mxGeometry x="214" y="262" width="50" height="20" as="geometry" />
        </mxCell>
        <mxCell id="Gv1RzVRWYOlfWdWk6Ut9-53" value="(0,N)" style="text;html=1;align=center;verticalAlign=middle;whiteSpace=wrap;rounded=0;" parent="1" vertex="1">
          <mxGeometry x="309" y="290" width="50" height="20" as="geometry" />
        </mxCell>
        <mxCell id="SnCLscJBYoTOpv-g1eGh-1" value="" style="endArrow=none;html=1;rounded=0;entryX=0;entryY=0.5;entryDx=0;entryDy=0;exitX=1;exitY=0.75;exitDx=0;exitDy=0;" parent="1" source="GVSm5cRxoAovmWzhfuRe-1" target="GVSm5cRxoAovmWzhfuRe-4" edge="1">
          <mxGeometry width="50" height="50" relative="1" as="geometry">
            <mxPoint x="-90" y="320" as="sourcePoint" />
            <mxPoint x="70.00000000000006" y="320" as="targetPoint" />
          </mxGeometry>
        </mxCell>
        <mxCell id="SnCLscJBYoTOpv-g1eGh-2" value="" style="html=1;verticalAlign=bottom;labelBackgroundColor=none;startArrow=oval;startFill=0;startSize=8;endArrow=none;rounded=0;entryX=0.5;entryY=1;entryDx=0;entryDy=0;" parent="1" target="eODNS1rkglVLY219tLkL-5" edge="1">
          <mxGeometry x="-1" y="3" relative="1" as="geometry">
            <mxPoint x="760" y="420" as="sourcePoint" />
            <mxPoint x="750" y="390" as="targetPoint" />
            <Array as="points" />
          </mxGeometry>
        </mxCell>
        <mxCell id="SnCLscJBYoTOpv-g1eGh-3" value="Alimentazione" style="edgeLabel;html=1;align=center;verticalAlign=middle;resizable=0;points=[];" parent="SnCLscJBYoTOpv-g1eGh-2" vertex="1" connectable="0">
          <mxGeometry x="-0.25" y="-2" relative="1" as="geometry">
            <mxPoint x="3" y="33" as="offset" />
          </mxGeometry>
        </mxCell>
        <mxCell id="SnCLscJBYoTOpv-g1eGh-4" value="" style="html=1;verticalAlign=bottom;labelBackgroundColor=none;startArrow=oval;startFill=0;startSize=8;endArrow=none;rounded=0;entryX=1;entryY=0.5;entryDx=0;entryDy=0;" parent="1" edge="1">
          <mxGeometry x="-1" y="3" relative="1" as="geometry">
            <mxPoint x="860.42" y="339.83" as="sourcePoint" />
            <mxPoint x="810.42" y="339.83" as="targetPoint" />
            <Array as="points" />
          </mxGeometry>
        </mxCell>
        <mxCell id="SnCLscJBYoTOpv-g1eGh-5" value="Tipologia" style="edgeLabel;html=1;align=center;verticalAlign=middle;resizable=0;points=[];" parent="SnCLscJBYoTOpv-g1eGh-4" vertex="1" connectable="0">
          <mxGeometry x="-0.25" y="-2" relative="1" as="geometry">
            <mxPoint x="48" y="2" as="offset" />
          </mxGeometry>
        </mxCell>
        <mxCell id="SnCLscJBYoTOpv-g1eGh-6" value="Lavora" style="shape=rhombus;perimeter=rhombusPerimeter;whiteSpace=wrap;html=1;align=center;" parent="1" vertex="1">
          <mxGeometry x="109" y="480" width="120" height="60" as="geometry" />
        </mxCell>
      </root>
    </mxGraphModel>
  </diagram>
</mxfile>
